<?xml version="1.0" encoding="utf-8"?>
<!-- Generator: Adobe Illustrator 24.3.2, SVG Export Plug-In . SVG Version: 6.00 Build 0)  -->
<svg version="1.1" xmlns="http://www.w3.org/2000/svg" xmlns:xlink="http://www.w3.org/1999/xlink" x="0px" y="0px"
	 viewBox="0 0 250 250" style="enable-background:new 0 0 250 250;" xml:space="preserve">
<style type="text/css">
	.st0{opacity:0.5;}
	.st1{clip-path:url(#SVGID_2_);fill:none;stroke:#00D905;stroke-width:3.5198;stroke-miterlimit:10;}
	.st2{clip-path:url(#SVGID_4_);fill:none;stroke:#00D905;stroke-width:1.1733;stroke-linecap:round;stroke-miterlimit:10;}
	.st3{clip-path:url(#SVGID_6_);fill:none;stroke:#00D905;stroke-width:3.5198;stroke-miterlimit:10;}
	.st4{clip-path:url(#SVGID_8_);fill:none;stroke:#00D905;stroke-width:1.1733;stroke-linecap:round;stroke-miterlimit:10;}
	.st5{clip-path:url(#SVGID_10_);fill:none;stroke:#00D905;stroke-width:3.5198;stroke-miterlimit:10;}
	.st6{clip-path:url(#SVGID_10_);fill:none;stroke:#00D905;stroke-width:3.5198;stroke-linecap:round;stroke-miterlimit:10;}
	.st7{clip-path:url(#SVGID_12_);fill:none;stroke:#00D905;stroke-width:1.1733;stroke-linecap:round;stroke-miterlimit:10;}
	.st8{clip-path:url(#SVGID_14_);fill:none;stroke:#00D905;stroke-width:3.5198;stroke-miterlimit:10;}
	.st9{fill:none;}
	.st10{fill:none;stroke:#000000;stroke-width:5.3573;stroke-linecap:round;stroke-linejoin:round;}
	.st11{fill:none;stroke:#000000;stroke-width:5.6884;stroke-linecap:round;stroke-linejoin:round;}
	.st12{fill:none;stroke:#000000;stroke-width:6;stroke-linecap:round;stroke-linejoin:round;}
	.st13{fill:none;stroke:#000000;stroke-width:8;stroke-linejoin:round;}
	.st14{fill:none;stroke:#000000;stroke-width:8;stroke-linecap:round;stroke-linejoin:round;}
	.st15{fill:#FFDD00;}
	.st16{display:none;}
	.st17{fill:#FFFFFF;}
	.st18{clip-path:url(#SVGID_16_);fill:#FFDD00;}
	.st19{clip-path:url(#SVGID_18_);fill:url(#SVGID_19_);}
	.st20{clip-path:url(#SVGID_21_);fill:url(#SVGID_22_);}
	.st21{clip-path:url(#SVGID_24_);fill:url(#SVGID_25_);}
	.st22{clip-path:url(#SVGID_27_);fill:url(#SVGID_28_);}
	.st23{clip-path:url(#SVGID_30_);fill:url(#SVGID_31_);}
	.st24{clip-path:url(#SVGID_33_);fill:url(#SVGID_34_);}
	.st25{clip-path:url(#SVGID_36_);fill:url(#SVGID_37_);}
	.st26{clip-path:url(#SVGID_39_);fill:url(#SVGID_40_);}
	.st27{clip-path:url(#SVGID_42_);fill:url(#SVGID_43_);}
	.st28{clip-path:url(#SVGID_45_);fill:url(#SVGID_46_);}
	.st29{fill:url(#SVGID_47_);}
	.st30{fill:url(#SVGID_48_);}
	.st31{fill:url(#SVGID_49_);}
	.st32{fill:url(#SVGID_50_);}
	.st33{fill:url(#SVGID_51_);}
	.st34{fill:url(#SVGID_52_);}
	.st35{fill:url(#SVGID_53_);}
	.st36{fill:url(#SVGID_54_);}
	.st37{fill:url(#SVGID_55_);}
	.st38{fill:url(#SVGID_56_);}
	.st39{clip-path:url(#SVGID_58_);fill:#0B0204;}
	.st40{fill:#EFEFEF;}
	.st41{clip-path:url(#SVGID_60_);fill:#FFDD00;}
	.st42{clip-path:url(#SVGID_62_);fill:url(#SVGID_63_);}
	.st43{clip-path:url(#SVGID_65_);fill:url(#SVGID_66_);}
	.st44{clip-path:url(#SVGID_68_);fill:url(#SVGID_69_);}
	.st45{clip-path:url(#SVGID_71_);fill:url(#SVGID_72_);}
	.st46{clip-path:url(#SVGID_74_);fill:url(#SVGID_75_);}
	.st47{clip-path:url(#SVGID_77_);fill:url(#SVGID_78_);}
	.st48{clip-path:url(#SVGID_80_);fill:url(#SVGID_81_);}
	.st49{clip-path:url(#SVGID_83_);fill:url(#SVGID_84_);}
	.st50{clip-path:url(#SVGID_86_);fill:url(#SVGID_87_);}
	.st51{clip-path:url(#SVGID_89_);fill:url(#SVGID_90_);}
	.st52{fill:url(#SVGID_91_);}
	.st53{fill:url(#SVGID_92_);}
	.st54{fill:url(#SVGID_93_);}
	.st55{fill:url(#SVGID_94_);}
	.st56{fill:url(#SVGID_95_);}
	.st57{fill:url(#SVGID_96_);}
	.st58{fill:url(#SVGID_97_);}
	.st59{fill:url(#SVGID_98_);}
	.st60{fill:url(#SVGID_99_);}
	.st61{fill:url(#SVGID_100_);}
	.st62{clip-path:url(#SVGID_102_);fill:#0B0204;}
	.st63{clip-path:url(#SVGID_104_);fill:#FFDD00;}
	.st64{clip-path:url(#SVGID_106_);fill:url(#SVGID_107_);}
	.st65{clip-path:url(#SVGID_109_);fill:url(#SVGID_110_);}
	.st66{clip-path:url(#SVGID_112_);fill:url(#SVGID_113_);}
	.st67{clip-path:url(#SVGID_115_);fill:url(#SVGID_116_);}
	.st68{clip-path:url(#SVGID_118_);fill:url(#SVGID_119_);}
	.st69{clip-path:url(#SVGID_121_);fill:url(#SVGID_122_);}
	.st70{clip-path:url(#SVGID_124_);fill:url(#SVGID_125_);}
	.st71{clip-path:url(#SVGID_127_);fill:url(#SVGID_128_);}
	.st72{clip-path:url(#SVGID_130_);fill:url(#SVGID_131_);}
	.st73{clip-path:url(#SVGID_133_);fill:url(#SVGID_134_);}
	.st74{fill:url(#SVGID_135_);}
	.st75{fill:url(#SVGID_136_);}
	.st76{fill:url(#SVGID_137_);}
	.st77{fill:url(#SVGID_138_);}
	.st78{fill:url(#SVGID_139_);}
	.st79{fill:url(#SVGID_140_);}
	.st80{fill:url(#SVGID_141_);}
	.st81{fill:url(#SVGID_142_);}
	.st82{fill:url(#SVGID_143_);}
	.st83{fill:url(#SVGID_144_);}
	.st84{clip-path:url(#SVGID_146_);fill:#0B0204;}
	.st85{clip-path:url(#SVGID_148_);fill:#FFDD00;}
	.st86{clip-path:url(#SVGID_150_);fill:url(#SVGID_151_);}
	.st87{clip-path:url(#SVGID_153_);fill:url(#SVGID_154_);}
	.st88{clip-path:url(#SVGID_156_);fill:url(#SVGID_157_);}
	.st89{clip-path:url(#SVGID_159_);fill:url(#SVGID_160_);}
	.st90{clip-path:url(#SVGID_162_);fill:url(#SVGID_163_);}
	.st91{clip-path:url(#SVGID_165_);fill:url(#SVGID_166_);}
	.st92{clip-path:url(#SVGID_168_);fill:url(#SVGID_169_);}
	.st93{clip-path:url(#SVGID_171_);fill:url(#SVGID_172_);}
	.st94{clip-path:url(#SVGID_174_);fill:url(#SVGID_175_);}
	.st95{clip-path:url(#SVGID_177_);fill:url(#SVGID_178_);}
	.st96{fill:url(#SVGID_179_);}
	.st97{fill:url(#SVGID_180_);}
	.st98{fill:url(#SVGID_181_);}
	.st99{fill:url(#SVGID_182_);}
	.st100{fill:url(#SVGID_183_);}
	.st101{fill:url(#SVGID_184_);}
	.st102{fill:url(#SVGID_185_);}
	.st103{fill:url(#SVGID_186_);}
	.st104{fill:url(#SVGID_187_);}
	.st105{fill:url(#SVGID_188_);}
	.st106{clip-path:url(#SVGID_190_);fill:#0B0204;}
	.st107{clip-path:url(#SVGID_192_);fill:#FFDD00;}
	.st108{clip-path:url(#SVGID_194_);fill:url(#SVGID_195_);}
	.st109{clip-path:url(#SVGID_197_);fill:url(#SVGID_198_);}
	.st110{clip-path:url(#SVGID_200_);fill:url(#SVGID_201_);}
	.st111{clip-path:url(#SVGID_203_);fill:url(#SVGID_204_);}
	.st112{clip-path:url(#SVGID_206_);fill:url(#SVGID_207_);}
	.st113{clip-path:url(#SVGID_209_);fill:url(#SVGID_210_);}
	.st114{clip-path:url(#SVGID_212_);fill:url(#SVGID_213_);}
	.st115{clip-path:url(#SVGID_215_);fill:url(#SVGID_216_);}
	.st116{clip-path:url(#SVGID_218_);fill:url(#SVGID_219_);}
	.st117{clip-path:url(#SVGID_221_);fill:url(#SVGID_222_);}
	.st118{fill:url(#SVGID_223_);}
	.st119{fill:url(#SVGID_224_);}
	.st120{fill:url(#SVGID_225_);}
	.st121{fill:url(#SVGID_226_);}
	.st122{fill:url(#SVGID_227_);}
	.st123{fill:url(#SVGID_228_);}
	.st124{fill:url(#SVGID_229_);}
	.st125{fill:url(#SVGID_230_);}
	.st126{fill:url(#SVGID_231_);}
	.st127{fill:url(#SVGID_232_);}
	.st128{clip-path:url(#SVGID_234_);fill:#0B0204;}
	.st129{fill:#F44336;}
	.st130{fill:#ECEFF1;}
	.st131{fill:#3F51B5;}
	.st132{fill:#E91E26;}
	.st133{fill:#1B5E20;}
	.st134{fill:#D50000;}
	.st135{fill:#F0A11C;}
	.st136{fill:#6E7A2F;}
	.st137{fill:none;stroke:#000000;stroke-width:3.5198;stroke-linecap:round;stroke-linejoin:round;}
	.st138{fill:none;stroke:#000000;stroke-width:3.5198;stroke-miterlimit:10;}
	.st139{clip-path:url(#SVGID_236_);}
	.st140{fill:none;stroke:#000000;stroke-width:1.1733;stroke-linecap:round;stroke-miterlimit:10;}
	.st141{fill:none;stroke:#000000;stroke-width:5;stroke-miterlimit:10;}
	.st142{fill:none;stroke:#000000;stroke-width:3.3;stroke-miterlimit:10;}
	.st143{clip-path:url(#SVGID_238_);}
	.st144{clip-path:url(#SVGID_240_);}
	.st145{clip-path:url(#SVGID_242_);}
	.st146{fill:none;stroke:#000000;stroke-width:3.5198;stroke-linejoin:round;stroke-miterlimit:10;}
	.st147{fill:none;stroke:#000000;stroke-width:3.5198;stroke-linecap:round;stroke-miterlimit:10;}
	.st148{fill:#CCCCCC;}
	.st149{fill:none;stroke:#000000;stroke-width:4.4081;stroke-linecap:round;stroke-miterlimit:10;}
	.st150{fill:none;stroke:#CCCCCC;stroke-width:4.6823;stroke-linecap:round;stroke-linejoin:round;}
	.st151{fill:none;stroke:#000000;stroke-width:4.6823;stroke-linecap:round;stroke-linejoin:round;}
	.st152{fill:#FFFFFF;stroke:#000000;stroke-width:4.6823;stroke-linecap:round;stroke-linejoin:round;}
</style>
<g id="Layer_1">
</g>
<g id="icons">
	<g>
		<g>
			<path d="M240.4,140.5C240.4,140.5,240.4,140.5,240.4,140.5l-2.1-34.6c0-3.4-0.5-10.6-4-12.8c-0.1-2.7-0.7-4.5-1.9-5.6
				c0.2-0.6,0.3-1.3,0.3-2.2c0.1-2.8-0.5-4.4-2-4.9c-4.4-1.7-9.6-2.8-15.8-3.4c-2.8-0.3-6.8-0.7-9.6-0.8c-6.3-0.2-6.9,0.2-7.4,0.6
				c-0.1,0.1-0.2,0.2-0.3,0.2c-1.2,1.2-1.5,4.1-1.4,6.2c-0.3,0.2-0.6,0.4-0.9,0.6c-0.1-1-0.1-1.8-0.1-2.5c-0.1-2.4-0.2-3.9-1.7-4.9
				c-1.2-0.8-2.9-1.1-4.5-1.3c-0.5-0.1-1.2-0.2-1.5-0.3c-4-4.1-10.7-13.2-11.5-14.3c-0.6-0.8-1.7-2-2.4-2.7
				c-0.7-0.7-1.5-1.2-2.5-1.4c-2.1-0.4-7.9-1.4-16-1.4c-8.6,0-14.7,1.1-16.4,1.5c-0.7,0.1-1.4,0.5-1.9,0.9c-0.9,0.8-1.7,1.9-2.5,2.9
				l-0.5,0.7c-2,2.7-5.6,7.6-8.9,11c-0.1,0-0.2,0-0.3,0c-0.7,0.1-1.7,0.3-2.9,1.1c-2.1,1.3-3.2,2.8-3.7,3.6l-0.1,0.1
				c-1,1.4-1.3,2.6-1.6,4c-0.2,0.9-0.5,2-1.1,3.6l-21.9,2.8c-0.3,0-0.6,0.1-0.9,0.1l-39.1,1.7c-10.6,0-18.6,8.4-19.1,15.9l-2.9,23.5
				c-0.1,0.5-0.2,1.5-0.3,3.1c-0.4,5.1-1,14-1,16.1l-0.2,47.5l-20.2,35c-1.7,3-1.7,6.6,0,9.6s4.8,4.8,8.3,4.8h110.6
				c3.5,0,6.5-1.8,8.3-4.8s1.7-6.6,0-9.6l-3.1-5.4l7.3,0c0.5,0.1,0.9,0.2,1.4,0.3l0.2,0c0.5,0.1,1,0.2,1.5,0.3l0.3,0
				c0.5,0.1,0.9,0.1,1.4,0.2l0.4,0.1c0.4,0.1,0.9,0.1,1.3,0.2l0.5,0.1c0.4,0,0.8,0.1,1.2,0.1l0.5,0c0.4,0,0.8,0.1,1.2,0.1l0.5,0
				c0.4,0,0.8,0,1.3,0.1l0.5,0c1.2,0,2.4,0,3.5,0l0.5,0c0.4,0,0.8,0,1.3-0.1l0.5,0c0.4,0,0.8-0.1,1.2-0.1l0.5,0
				c0.4,0,0.8-0.1,1.3-0.1l0.4-0.1c0.4-0.1,0.9-0.1,1.3-0.2l0.4-0.1c0.5-0.1,0.9-0.1,1.5-0.2l0.2,0c0.5-0.1,1-0.2,1.5-0.3
				c0,0,0.2,0,0.2,0c0.5-0.1,0.9-0.2,1.4-0.3l60,0c7.2,0,11.3-4.1,11.3-11.3V143C240.5,142.2,240.4,141.3,240.4,140.5z M132.9,237.5
				c-0.9,1.5-2.5,2.4-4.2,2.4H18c-1.8,0-3.3-0.9-4.2-2.4c-0.9-1.5-0.9-3.3,0-4.9l55.3-95.8v0c0.9-1.5,2.5-2.4,4.2-2.4
				s3.3,0.9,4.2,2.4l55.3,95.8C133.8,234.2,133.8,236,132.9,237.5z M235.8,213.6c0,4.6-2,6.6-6.6,6.6l-60.3,0h0
				c-0.2,0-0.3,0-0.5,0.1c-0.5,0.1-1,0.2-1.6,0.3c0,0-0.1,0-0.1,0c-0.5,0.1-0.9,0.2-1.4,0.3l-0.2,0c-0.4,0.1-0.9,0.1-1.3,0.2l-0.3,0
				c-0.4,0.1-0.8,0.1-1.2,0.2l-0.4,0c-0.4,0-0.8,0.1-1.2,0.1l-0.5,0c-0.4,0-0.8,0.1-1.1,0.1l-0.5,0c-0.4,0-0.8,0-1.2,0l-0.5,0
				c-1.1,0-2.2,0-3.3,0l-0.5,0c-0.4,0-0.8,0-1.2,0l-0.5,0c-0.4,0-0.8,0-1.1-0.1l-0.5,0c-0.4,0-0.8-0.1-1.2-0.1l-0.4,0
				c-0.4,0-0.8-0.1-1.3-0.2l-0.3,0c-0.4-0.1-0.9-0.1-1.3-0.2l-0.3,0c-0.5-0.1-0.9-0.2-1.4-0.3c0,0-0.1,0-0.1,0
				c-0.5-0.1-1-0.2-1.5-0.3c-0.1,0-0.2,0-0.3,0c-0.1,0-0.2,0-0.2,0l-10.3,0l-49.5-85.7c-1.7-3-4.8-4.8-8.3-4.8c0,0,0,0,0,0
				c-3.5,0-6.5,1.8-8.3,4.8l-30.4,52.7l0.1-39.3c0-1.9,0.6-10.9,0.9-15.7c0.1-1.8,0.2-2.5,0.3-2.8l2.9-23.6c0,0,0-0.1,0-0.1
				C39.3,99.1,47,94,53.4,94c0,0,0.1,0,0.1,0l39.2-1.7c0.4,0,0.9-0.1,1.3-0.1l23.3-3c0.4,0,0.7-0.2,1-0.4c0.1-0.1,0.3-0.2,0.4-0.3
				c0.2-0.2,0.4-0.5,0.5-0.8c1-2.6,1.4-4.3,1.7-5.5c0.3-1.2,0.4-1.7,0.9-2.4l0.1-0.1c0.5-0.6,1.1-1.5,2.4-2.3
				c0.4-0.3,0.8-0.3,1.3-0.4c0.7-0.1,1.7-0.3,2.6-1.2c3.6-3.6,7.5-8.9,9.6-11.7l0.5-0.7c0.5-0.7,1.2-1.6,1.6-2
				c1.7-0.3,7.3-1.4,15.3-1.4c7.6,0,13.1,0.9,15.1,1.3c0.9,1,1.7,1.8,2,2.3c1.3,1.8,8.1,11,12.2,15.1c0.9,0.9,2.2,1.1,3.8,1.4
				c0.6,0.1,1.5,0.3,2.1,0.4c0,0.4,0.1,0.9,0.1,1.4c0.1,1.5,0.2,3.8,0.6,6.9c0.3,2.1,2.6,2.8,3.3,3.1c0.6,0.2,1.3,0.1,1.9-0.2
				s1-0.9,1.1-1.5c0.4-1.6,0.8-2.3,1-2.5c1-0.1,1.7-0.4,2.2-1.1c0.3-0.5,0.7-1.2,0.3-2.3c-0.1-0.6,0-2.1,0.1-3.1c0.8,0,2,0,4.1,0
				c2.1,0.1,5.4,0.3,9.3,0.8c5.3,0.5,9.7,1.5,13.6,2.8c0,0.7,0,1.6-0.2,2c-0.5,0.4-0.9,1.1-1,1.7c-0.1,1.7,1.4,2.4,2.2,2.7
				c0,0,0.1,0,0.1,0.1c0.1,0.3,0.5,1.3,0.4,3.7c0,1.3,0.9,2.3,2.2,2.4c0.8,0.4,1.8,4,1.8,8.9c0,0,0,0.1,0,0.1l2.1,34.6
				c0,0.8,0.1,1.5,0.1,2.3V213.6z"/>
		</g>
		<g>
			<path d="M73.3,215.9c-3.4,0-6,2.9-6,6.1c0,3.3,2.7,6,6,6c3.4,0,6-2.8,6-6C79.4,218.7,76.7,215.9,73.3,215.9z"/>
		</g>
		<g>
			<path d="M73.3,209.3c2.2,0,4.1-1.8,4.2-4c0.3-9.5,1.1-32.6,1.1-35.4c0-4.1-2-5.9-5.3-5.9c-3.3,0-5.3,1.7-5.3,5.9
				c0,2.8,0.8,25.9,1.1,35.4C69.3,207.5,71.1,209.3,73.3,209.3z"/>
		</g>
	</g>
	<g>
		<g>
			<path d="M240.4,140.5C240.4,140.5,240.4,140.5,240.4,140.5l-2.1-34.6c0-3.4-0.5-10.6-4-12.8c-0.1-2.7-0.7-4.5-1.9-5.6
				c0.2-0.6,0.3-1.3,0.3-2.2c0.1-2.8-0.5-4.4-2-4.9c-4.4-1.7-9.6-2.8-15.8-3.4c-2.8-0.3-6.8-0.7-9.6-0.8c-6.3-0.2-6.9,0.2-7.4,0.6
				c-0.1,0.1-0.2,0.2-0.3,0.2c-1.2,1.2-1.5,4.1-1.4,6.2c-0.3,0.2-0.6,0.4-0.9,0.6c-0.1-1-0.1-1.8-0.1-2.5c-0.1-2.4-0.2-3.9-1.7-4.9
				c-1.2-0.8-2.9-1.1-4.5-1.3c-0.5-0.1-1.2-0.2-1.5-0.3c-4-4.1-10.7-13.2-11.5-14.3c-0.6-0.8-1.7-2-2.4-2.7
				c-0.7-0.7-1.5-1.2-2.5-1.4c-2.1-0.4-7.9-1.4-16-1.4c-8.6,0-14.7,1.1-16.4,1.5c-0.7,0.1-1.4,0.5-1.9,0.9c-0.9,0.8-1.7,1.9-2.5,2.9
				l-0.5,0.7c-2,2.7-5.6,7.6-8.9,11c-0.1,0-0.2,0-0.3,0c-0.7,0.1-1.7,0.3-2.9,1.1c-2.1,1.3-3.2,2.8-3.7,3.6l-0.1,0.1
				c-1,1.4-1.3,2.6-1.6,4c-0.2,0.9-0.5,2-1.1,3.6l-21.9,2.8c-0.3,0-0.6,0.1-0.9,0.1l-39.1,1.7c-10.6,0-18.6,8.4-19.1,15.9l-2.9,23.5
				c-0.1,0.5-0.2,1.5-0.3,3.1c-0.4,5.1-1,14-1,16.1l-0.2,47.5l-20.2,35c-1.7,3-1.7,6.6,0,9.6s4.8,4.8,8.3,4.8h110.6
				c3.5,0,6.5-1.8,8.3-4.8s1.7-6.6,0-9.6l-3.1-5.4l7.3,0c0.5,0.1,0.9,0.2,1.4,0.3l0.2,0c0.5,0.1,1,0.2,1.5,0.3l0.3,0
				c0.5,0.1,0.9,0.1,1.4,0.2l0.4,0.1c0.4,0.1,0.9,0.1,1.3,0.2l0.5,0.1c0.4,0,0.8,0.1,1.2,0.1l0.5,0c0.4,0,0.8,0.1,1.2,0.1l0.5,0
				c0.4,0,0.8,0,1.3,0.1l0.5,0c1.2,0,2.4,0,3.5,0l0.5,0c0.4,0,0.8,0,1.3-0.1l0.5,0c0.4,0,0.8-0.1,1.2-0.1l0.5,0
				c0.4,0,0.8-0.1,1.3-0.1l0.4-0.1c0.4-0.1,0.9-0.1,1.3-0.2l0.4-0.1c0.5-0.1,0.9-0.1,1.5-0.2l0.2,0c0.5-0.1,1-0.2,1.5-0.3
				c0,0,0.2,0,0.2,0c0.5-0.1,0.9-0.2,1.4-0.3l60,0c7.2,0,11.3-4.1,11.3-11.3V143C240.5,142.2,240.4,141.3,240.4,140.5z M132.9,237.5
				c-0.9,1.5-2.5,2.4-4.2,2.4H18c-1.8,0-3.3-0.9-4.2-2.4c-0.9-1.5-0.9-3.3,0-4.9l55.3-95.8v0c0.9-1.5,2.5-2.4,4.2-2.4
				s3.3,0.9,4.2,2.4l55.3,95.8C133.8,234.2,133.8,236,132.9,237.5z M235.8,213.6c0,4.6-2,6.6-6.6,6.6l-60.3,0h0
				c-0.2,0-0.3,0-0.5,0.1c-0.5,0.1-1,0.2-1.6,0.3c0,0-0.1,0-0.1,0c-0.5,0.1-0.9,0.2-1.4,0.3l-0.2,0c-0.4,0.1-0.9,0.1-1.3,0.2l-0.3,0
				c-0.4,0.1-0.8,0.1-1.2,0.2l-0.4,0c-0.4,0-0.8,0.1-1.2,0.1l-0.5,0c-0.4,0-0.8,0.1-1.1,0.1l-0.5,0c-0.4,0-0.8,0-1.2,0l-0.5,0
				c-1.1,0-2.2,0-3.3,0l-0.5,0c-0.4,0-0.8,0-1.2,0l-0.5,0c-0.4,0-0.8,0-1.1-0.1l-0.5,0c-0.4,0-0.8-0.1-1.2-0.1l-0.4,0
				c-0.4,0-0.8-0.1-1.3-0.2l-0.3,0c-0.4-0.1-0.9-0.1-1.3-0.2l-0.3,0c-0.5-0.1-0.9-0.2-1.4-0.3c0,0-0.1,0-0.1,0
				c-0.5-0.1-1-0.2-1.5-0.3c-0.1,0-0.2,0-0.3,0c-0.1,0-0.2,0-0.2,0l-10.3,0l-49.5-85.7c-1.7-3-4.8-4.8-8.3-4.8c0,0,0,0,0,0
				c-3.5,0-6.5,1.8-8.3,4.8l-30.4,52.7l0.1-39.3c0-1.9,0.6-10.9,0.9-15.7c0.1-1.8,0.2-2.5,0.3-2.8l2.9-23.6c0,0,0-0.1,0-0.1
				C39.3,99.1,47,94,53.4,94c0,0,0.1,0,0.1,0l39.2-1.7c0.4,0,0.9-0.1,1.3-0.1l23.3-3c0.4,0,0.7-0.2,1-0.4c0.1-0.1,0.3-0.2,0.4-0.3
				c0.2-0.2,0.4-0.5,0.5-0.8c1-2.6,1.4-4.3,1.7-5.5c0.3-1.2,0.4-1.7,0.9-2.4l0.1-0.1c0.5-0.6,1.1-1.5,2.4-2.3
				c0.4-0.3,0.8-0.3,1.3-0.4c0.7-0.1,1.7-0.3,2.6-1.2c3.6-3.6,7.5-8.9,9.6-11.7l0.5-0.7c0.5-0.7,1.2-1.6,1.6-2
				c1.7-0.3,7.3-1.4,15.3-1.4c7.6,0,13.1,0.9,15.1,1.3c0.9,1,1.7,1.8,2,2.3c1.3,1.8,8.1,11,12.2,15.1c0.9,0.9,2.2,1.1,3.8,1.4
				c0.6,0.1,1.5,0.3,2.1,0.4c0,0.4,0.1,0.9,0.1,1.4c0.1,1.5,0.2,3.8,0.6,6.9c0.3,2.1,2.6,2.8,3.3,3.1c0.6,0.2,1.3,0.1,1.9-0.2
				s1-0.9,1.1-1.5c0.4-1.6,0.8-2.3,1-2.5c1-0.1,1.7-0.4,2.2-1.1c0.3-0.5,0.7-1.2,0.3-2.3c-0.1-0.6,0-2.1,0.1-3.1c0.8,0,2,0,4.1,0
				c2.1,0.1,5.4,0.3,9.3,0.8c5.3,0.5,9.7,1.5,13.6,2.8c0,0.7,0,1.6-0.2,2c-0.5,0.4-0.9,1.1-1,1.7c-0.1,1.7,1.4,2.4,2.2,2.7
				c0,0,0.1,0,0.1,0.1c0.1,0.3,0.5,1.3,0.4,3.7c0,1.3,0.9,2.3,2.2,2.4c0.8,0.4,1.8,4,1.8,8.9c0,0,0,0.1,0,0.1l2.1,34.6
				c0,0.8,0.1,1.5,0.1,2.3V213.6z"/>
		</g>
		<g>
			<path d="M73.3,215.9c-3.4,0-6,2.9-6,6.1c0,3.3,2.7,6,6,6c3.4,0,6-2.8,6-6C79.4,218.7,76.7,215.9,73.3,215.9z"/>
		</g>
		<g>
			<path d="M73.3,209.3c2.2,0,4.1-1.8,4.2-4c0.3-9.5,1.1-32.6,1.1-35.4c0-4.1-2-5.9-5.3-5.9c-3.3,0-5.3,1.7-5.3,5.9
				c0,2.8,0.8,25.9,1.1,35.4C69.3,207.5,71.1,209.3,73.3,209.3z"/>
		</g>
	</g>
	<g>
		<path class="st148" d="M220,161.5c0-35.8-29.1-64.8-64.8-64.8c-32.2,0-58.9,23.6-64,54.3l3.9,6.8c1.9-31.5,28.1-56.5,60-56.5
			c33.2,0,60.2,27,60.2,60.2c0,33.2-27,60.2-60.2,60.2c-9.6,0-18.7-2.3-26.8-6.3l2.8,4.9l10.3,0c0.1,0,0.2,0,0.2,0
			c0.1,0,0.2,0,0.3,0c0.5,0.1,1,0.2,1.5,0.3c0,0,0.1,0,0.1,0c0.5,0.1,0.9,0.2,1.4,0.3l0.3,0c0.4,0.1,0.9,0.1,1.3,0.2l0.3,0
			c0.4,0.1,0.8,0.1,1.3,0.2l0.4,0c0.4,0,0.8,0.1,1.2,0.1l0.5,0c0.4,0,0.8,0.1,1.1,0.1l0.5,0c0.4,0,0.8,0,1.2,0l0.5,0
			c1.1,0,2.2,0,3.3,0l0.5,0c0.4,0,0.8,0,1.2,0l0.5,0c0.4,0,0.8,0,1.1-0.1l0.5,0c0.4,0,0.8-0.1,1.2-0.1l0.4,0c0.4,0,0.8-0.1,1.2-0.2
			l0.3,0c0.4-0.1,0.9-0.1,1.3-0.2l0.2,0c0.5-0.1,1-0.2,1.4-0.3c0,0,0.1,0,0.1,0c0.6-0.1,1.1-0.2,1.6-0.3c0.2,0,0.3-0.1,0.5-0.1h0
			l13.7,0C204.7,209.9,220,187.5,220,161.5z"/>
		<path class="st148" d="M155.1,212.5c28.1,0,51-22.9,51-51s-22.9-51-51-51s-51,22.9-51,51c0,6.1,1.1,11.9,3,17.3l8.9,15.4
			C125.5,205.4,139.5,212.5,155.1,212.5z M155.1,115.3c25.5,0,46.3,20.8,46.3,46.3s-20.8,46.3-46.3,46.3s-46.3-20.8-46.3-46.3
			S129.6,115.3,155.1,115.3z"/>
	</g>
</g>
</svg>
