<?xml version="1.0" encoding="utf-8"?>
<!-- Generator: Adobe Illustrator 24.3.2, SVG Export Plug-In . SVG Version: 6.00 Build 0)  -->
<svg version="1.1" xmlns="http://www.w3.org/2000/svg" xmlns:xlink="http://www.w3.org/1999/xlink" x="0px" y="0px"
	 viewBox="0 0 250 250" style="enable-background:new 0 0 250 250;" xml:space="preserve">
<style type="text/css">
	.st0{opacity:0.5;}
	.st1{clip-path:url(#SVGID_2_);fill:none;stroke:#00D905;stroke-width:3.5198;stroke-miterlimit:10;}
	.st2{clip-path:url(#SVGID_4_);fill:none;stroke:#00D905;stroke-width:1.1733;stroke-linecap:round;stroke-miterlimit:10;}
	.st3{clip-path:url(#SVGID_6_);fill:none;stroke:#00D905;stroke-width:3.5198;stroke-miterlimit:10;}
	.st4{clip-path:url(#SVGID_8_);fill:none;stroke:#00D905;stroke-width:1.1733;stroke-linecap:round;stroke-miterlimit:10;}
	.st5{clip-path:url(#SVGID_10_);fill:none;stroke:#00D905;stroke-width:3.5198;stroke-miterlimit:10;}
	.st6{clip-path:url(#SVGID_10_);fill:none;stroke:#00D905;stroke-width:3.5198;stroke-linecap:round;stroke-miterlimit:10;}
	.st7{clip-path:url(#SVGID_12_);fill:none;stroke:#00D905;stroke-width:1.1733;stroke-linecap:round;stroke-miterlimit:10;}
	.st8{clip-path:url(#SVGID_14_);fill:none;stroke:#00D905;stroke-width:3.5198;stroke-miterlimit:10;}
	.st9{fill:none;}
	.st10{fill:none;stroke:#000000;stroke-width:5.3573;stroke-linecap:round;stroke-linejoin:round;}
	.st11{fill:none;stroke:#000000;stroke-width:5.6884;stroke-linecap:round;stroke-linejoin:round;}
	.st12{fill:none;stroke:#000000;stroke-width:6;stroke-linecap:round;stroke-linejoin:round;}
	.st13{fill:none;stroke:#000000;stroke-width:8;stroke-linejoin:round;}
	.st14{fill:none;stroke:#000000;stroke-width:8;stroke-linecap:round;stroke-linejoin:round;}
	.st15{fill:#FFDD00;}
	.st16{display:none;}
	.st17{fill:#FFFFFF;}
	.st18{clip-path:url(#SVGID_16_);fill:#FFDD00;}
	.st19{clip-path:url(#SVGID_18_);fill:url(#SVGID_19_);}
	.st20{clip-path:url(#SVGID_21_);fill:url(#SVGID_22_);}
	.st21{clip-path:url(#SVGID_24_);fill:url(#SVGID_25_);}
	.st22{clip-path:url(#SVGID_27_);fill:url(#SVGID_28_);}
	.st23{clip-path:url(#SVGID_30_);fill:url(#SVGID_31_);}
	.st24{clip-path:url(#SVGID_33_);fill:url(#SVGID_34_);}
	.st25{clip-path:url(#SVGID_36_);fill:url(#SVGID_37_);}
	.st26{clip-path:url(#SVGID_39_);fill:url(#SVGID_40_);}
	.st27{clip-path:url(#SVGID_42_);fill:url(#SVGID_43_);}
	.st28{clip-path:url(#SVGID_45_);fill:url(#SVGID_46_);}
	.st29{fill:url(#SVGID_47_);}
	.st30{fill:url(#SVGID_48_);}
	.st31{fill:url(#SVGID_49_);}
	.st32{fill:url(#SVGID_50_);}
	.st33{fill:url(#SVGID_51_);}
	.st34{fill:url(#SVGID_52_);}
	.st35{fill:url(#SVGID_53_);}
	.st36{fill:url(#SVGID_54_);}
	.st37{fill:url(#SVGID_55_);}
	.st38{fill:url(#SVGID_56_);}
	.st39{clip-path:url(#SVGID_58_);fill:#0B0204;}
	.st40{fill:#EFEFEF;}
	.st41{clip-path:url(#SVGID_60_);fill:#FFDD00;}
	.st42{clip-path:url(#SVGID_62_);fill:url(#SVGID_63_);}
	.st43{clip-path:url(#SVGID_65_);fill:url(#SVGID_66_);}
	.st44{clip-path:url(#SVGID_68_);fill:url(#SVGID_69_);}
	.st45{clip-path:url(#SVGID_71_);fill:url(#SVGID_72_);}
	.st46{clip-path:url(#SVGID_74_);fill:url(#SVGID_75_);}
	.st47{clip-path:url(#SVGID_77_);fill:url(#SVGID_78_);}
	.st48{clip-path:url(#SVGID_80_);fill:url(#SVGID_81_);}
	.st49{clip-path:url(#SVGID_83_);fill:url(#SVGID_84_);}
	.st50{clip-path:url(#SVGID_86_);fill:url(#SVGID_87_);}
	.st51{clip-path:url(#SVGID_89_);fill:url(#SVGID_90_);}
	.st52{fill:url(#SVGID_91_);}
	.st53{fill:url(#SVGID_92_);}
	.st54{fill:url(#SVGID_93_);}
	.st55{fill:url(#SVGID_94_);}
	.st56{fill:url(#SVGID_95_);}
	.st57{fill:url(#SVGID_96_);}
	.st58{fill:url(#SVGID_97_);}
	.st59{fill:url(#SVGID_98_);}
	.st60{fill:url(#SVGID_99_);}
	.st61{fill:url(#SVGID_100_);}
	.st62{clip-path:url(#SVGID_102_);fill:#0B0204;}
	.st63{clip-path:url(#SVGID_104_);fill:#FFDD00;}
	.st64{clip-path:url(#SVGID_106_);fill:url(#SVGID_107_);}
	.st65{clip-path:url(#SVGID_109_);fill:url(#SVGID_110_);}
	.st66{clip-path:url(#SVGID_112_);fill:url(#SVGID_113_);}
	.st67{clip-path:url(#SVGID_115_);fill:url(#SVGID_116_);}
	.st68{clip-path:url(#SVGID_118_);fill:url(#SVGID_119_);}
	.st69{clip-path:url(#SVGID_121_);fill:url(#SVGID_122_);}
	.st70{clip-path:url(#SVGID_124_);fill:url(#SVGID_125_);}
	.st71{clip-path:url(#SVGID_127_);fill:url(#SVGID_128_);}
	.st72{clip-path:url(#SVGID_130_);fill:url(#SVGID_131_);}
	.st73{clip-path:url(#SVGID_133_);fill:url(#SVGID_134_);}
	.st74{fill:url(#SVGID_135_);}
	.st75{fill:url(#SVGID_136_);}
	.st76{fill:url(#SVGID_137_);}
	.st77{fill:url(#SVGID_138_);}
	.st78{fill:url(#SVGID_139_);}
	.st79{fill:url(#SVGID_140_);}
	.st80{fill:url(#SVGID_141_);}
	.st81{fill:url(#SVGID_142_);}
	.st82{fill:url(#SVGID_143_);}
	.st83{fill:url(#SVGID_144_);}
	.st84{clip-path:url(#SVGID_146_);fill:#0B0204;}
	.st85{clip-path:url(#SVGID_148_);fill:#FFDD00;}
	.st86{clip-path:url(#SVGID_150_);fill:url(#SVGID_151_);}
	.st87{clip-path:url(#SVGID_153_);fill:url(#SVGID_154_);}
	.st88{clip-path:url(#SVGID_156_);fill:url(#SVGID_157_);}
	.st89{clip-path:url(#SVGID_159_);fill:url(#SVGID_160_);}
	.st90{clip-path:url(#SVGID_162_);fill:url(#SVGID_163_);}
	.st91{clip-path:url(#SVGID_165_);fill:url(#SVGID_166_);}
	.st92{clip-path:url(#SVGID_168_);fill:url(#SVGID_169_);}
	.st93{clip-path:url(#SVGID_171_);fill:url(#SVGID_172_);}
	.st94{clip-path:url(#SVGID_174_);fill:url(#SVGID_175_);}
	.st95{clip-path:url(#SVGID_177_);fill:url(#SVGID_178_);}
	.st96{fill:url(#SVGID_179_);}
	.st97{fill:url(#SVGID_180_);}
	.st98{fill:url(#SVGID_181_);}
	.st99{fill:url(#SVGID_182_);}
	.st100{fill:url(#SVGID_183_);}
	.st101{fill:url(#SVGID_184_);}
	.st102{fill:url(#SVGID_185_);}
	.st103{fill:url(#SVGID_186_);}
	.st104{fill:url(#SVGID_187_);}
	.st105{fill:url(#SVGID_188_);}
	.st106{clip-path:url(#SVGID_190_);fill:#0B0204;}
	.st107{clip-path:url(#SVGID_192_);fill:#FFDD00;}
	.st108{clip-path:url(#SVGID_194_);fill:url(#SVGID_195_);}
	.st109{clip-path:url(#SVGID_197_);fill:url(#SVGID_198_);}
	.st110{clip-path:url(#SVGID_200_);fill:url(#SVGID_201_);}
	.st111{clip-path:url(#SVGID_203_);fill:url(#SVGID_204_);}
	.st112{clip-path:url(#SVGID_206_);fill:url(#SVGID_207_);}
	.st113{clip-path:url(#SVGID_209_);fill:url(#SVGID_210_);}
	.st114{clip-path:url(#SVGID_212_);fill:url(#SVGID_213_);}
	.st115{clip-path:url(#SVGID_215_);fill:url(#SVGID_216_);}
	.st116{clip-path:url(#SVGID_218_);fill:url(#SVGID_219_);}
	.st117{clip-path:url(#SVGID_221_);fill:url(#SVGID_222_);}
	.st118{fill:url(#SVGID_223_);}
	.st119{fill:url(#SVGID_224_);}
	.st120{fill:url(#SVGID_225_);}
	.st121{fill:url(#SVGID_226_);}
	.st122{fill:url(#SVGID_227_);}
	.st123{fill:url(#SVGID_228_);}
	.st124{fill:url(#SVGID_229_);}
	.st125{fill:url(#SVGID_230_);}
	.st126{fill:url(#SVGID_231_);}
	.st127{fill:url(#SVGID_232_);}
	.st128{clip-path:url(#SVGID_234_);fill:#0B0204;}
	.st129{fill:#F44336;}
	.st130{fill:#ECEFF1;}
	.st131{fill:#3F51B5;}
	.st132{fill:#E91E26;}
	.st133{fill:#1B5E20;}
	.st134{fill:#D50000;}
	.st135{fill:#F0A11C;}
	.st136{fill:#6E7A2F;}
	.st137{fill:none;stroke:#000000;stroke-width:3.5198;stroke-linecap:round;stroke-linejoin:round;}
	.st138{fill:none;stroke:#000000;stroke-width:3.5198;stroke-miterlimit:10;}
	.st139{clip-path:url(#SVGID_236_);}
	.st140{fill:none;stroke:#000000;stroke-width:1.1733;stroke-linecap:round;stroke-miterlimit:10;}
	.st141{fill:none;stroke:#000000;stroke-width:5;stroke-miterlimit:10;}
	.st142{fill:none;stroke:#000000;stroke-width:3.3;stroke-miterlimit:10;}
	.st143{clip-path:url(#SVGID_238_);}
	.st144{clip-path:url(#SVGID_240_);}
	.st145{clip-path:url(#SVGID_242_);}
	.st146{fill:none;stroke:#000000;stroke-width:3.5198;stroke-linejoin:round;stroke-miterlimit:10;}
	.st147{fill:none;stroke:#000000;stroke-width:3.5198;stroke-linecap:round;stroke-miterlimit:10;}
	.st148{fill:#CCCCCC;}
	.st149{fill:none;stroke:#000000;stroke-width:4.4081;stroke-linecap:round;stroke-miterlimit:10;}
	.st150{fill:none;stroke:#CCCCCC;stroke-width:4.6823;stroke-linecap:round;stroke-linejoin:round;}
	.st151{fill:none;stroke:#000000;stroke-width:4.6823;stroke-linecap:round;stroke-linejoin:round;}
	.st152{fill:#FFFFFF;stroke:#000000;stroke-width:4.6823;stroke-linecap:round;stroke-linejoin:round;}
</style>
<g id="Layer_1">
</g>
<g id="icons">
	<g>
		<path d="M88.9,178.6c4,0,7.2-3.7,7.2-8.2c0-4.5-3.2-8.2-7.2-8.2s-7.2,3.7-7.2,8.2C81.7,175,85,178.6,88.9,178.6z M88.9,165.7
			c2,0,3.7,2.1,3.7,4.7s-1.7,4.7-3.7,4.7c-2,0-3.7-2.1-3.7-4.7S86.9,165.7,88.9,165.7z"/>
		<path d="M114.1,178.2h22.4c2.5,0,4.5-2,4.5-4.5v-6.5c0-2.5-2-4.5-4.5-4.5h-22.4c-2.5,0-4.5,2-4.5,4.5v6.5
			C109.6,176.2,111.7,178.2,114.1,178.2z M113.2,167.2c0-0.5,0.4-1,1-1h22.4c0.5,0,1,0.4,1,1v6.5c0,0.5-0.4,1-1,1h-22.4
			c-0.5,0-1-0.4-1-1V167.2z"/>
		<path d="M198.3,65.6v-6.5c0-1.8-1.3-3.3-3-3.7V36.2c0-1.2-0.8-2.3-2-2.6l-1.7-0.5c-1.1-0.3-2.2-0.2-3.1,0.4l-5.4,3.3l-1.3-2
			c-1.1-1.6-2.8-2.6-4.8-2.6c-27.3-1.9-103.1,0-103.8,0c-1.8,0-3.5,0.9-4.5,2.3l-1.6,2.2l-4.9-3.2c-0.9-0.6-2.1-0.8-3.1-0.5
			l-2.3,0.6c-1.1,0.3-1.9,1.3-1.9,2.4v19.4c-1.8,0.3-3.1,1.9-3.1,3.7v6.5c0,1.1,0.6,2,1.3,2.7v4c-0.8,0.9-1.3,2.2-1.3,3.5v14.9
			c0,0.9,0.2,1.7,0.6,2.5l1.5,4.1c0,0.1,0.1,0.1,0.1,0.2l4.1,8.1v5.2c-0.6,0.7-0.9,1.6-0.9,2.6v28.8l1.6,3.9l3.3,8.8h1v29.8
			c0,0.1,0,0.1,0,0.2c-0.1,0.6,0.1,1.1,0.6,1.5c0.8,0.7,2.7,2.9,3.1,5.1c-0.5,0.6-0.8,1.3-0.8,2.1v4.5c0,1.3,0.3,2.5,0.8,3.6l1,6
			c-0.3,0.8-0.5,1.5-0.5,2.1l0,24.6c0,2.5,1.8,4.5,4.3,4.8c3.1,0.4,6.6,0.7,10.2,1l0,3.1c0,1.3,1,2.5,2.3,2.6
			c10.4,1.3,25.5,2,41.4,2s31-0.7,41.4-2c1.3-0.2,2.3-1.3,2.3-2.6l0-3.1c3.7-0.3,7.1-0.6,10.2-1c2.4-0.3,4.3-2.3,4.3-4.8l0-24.6
			c0-0.9-0.2-1.8-0.7-2.6l1.2-5.5c0.5-1.1,0.8-2.3,0.8-3.6v-4.5c0-0.7-0.2-1.4-0.6-1.9c0.3-2.3,2.3-4.6,3.1-5.3
			c0.5-0.4,0.7-1,0.6-1.5c0,0,0-0.1,0-0.1v-29.8h0.5l2.9-7.7l2.5-5.5v-28.4c0-1.3-0.6-2.4-1.5-3.2v-4.6l4.3-8.1
			c0.1-0.1,0.1-0.2,0.1-0.4l1.1-4.1c0.4-0.7,0.6-1.5,0.6-2.4V75.8c0-1.1-0.4-2.2-1-3.1v-4.6C197.8,67.6,198.3,66.8,198.3,65.6z
			 M193.9,92.3c0.2-0.1,0.4-0.3,0.5-0.5l0,0C194.2,92.1,194.1,92.2,193.9,92.3z M55.6,91.9l-0.3-1c0,0,0-0.1,0-0.1V75.8
			c0-0.5,0.2-1,0.6-1.4v17.6C55.8,92,55.7,92,55.6,91.9z M55.8,92.1c0.3,0.3,0.7,0.5,1.2,0.5V74c-0.5,0-0.9,0.2-1.2,0.5
			c0.3-0.3,0.8-0.5,1.3-0.5h4.4v18.7h-4.4C56.6,92.6,56.2,92.4,55.8,92.1z M62.7,74h4.5v18.7h-4.5V74z M68.3,74h4.5v18.7h-4.5V74z
			 M74,74h4.5v18.7H74V74z M79.7,74h4.5v18.7h-4.5V74z M85.3,74h4.5v18.7h-4.5V74z M91,74h4.5v18.7H91V74z M96.7,74h4.5v18.7h-4.5
			V74z M102.3,74h4.5v18.7h-4.5V74z M108,74h4.5v18.7H108V74z M113.7,74h4.5v18.7h-4.5V74z M119.3,74h5v18.7h-5V74z M125.5,74h4
			v18.7h-4V74z M130.6,74h4.5v18.7h-4.5V74z M136.3,74h4.5v18.7h-4.5V74z M142,74h4.5v18.7H142V74z M147.6,74h4.5v18.7h-4.5V74z
			 M153.3,74h4.5v18.7h-4.5V74z M159,74h4.5v18.7H159V74z M164.6,74h4.5v18.7h-4.5V74z M170.3,74h4.5v18.7h-4.5V74z M176,74h4.5
			v18.7H176V74z M181.6,74h5.9v18.7h-5.9V74z M188.7,74h4.1c0.2,0,0.5,0.1,0.7,0.1c-0.1,0-0.2-0.1-0.3-0.1v18.6
			c0.1,0,0.2-0.1,0.3-0.1c-0.2,0.1-0.4,0.1-0.7,0.1h-4.1V74z M194.7,90.5l-0.3,1.3V74.8c0.2,0.3,0.3,0.7,0.3,1.1V90.5z M193.9,92.3
			c-0.1,0.1-0.2,0.1-0.3,0.2C193.7,92.5,193.8,92.4,193.9,92.3z M193.6,74.1c0.1,0,0.2,0.1,0.3,0.2
			C193.8,74.2,193.7,74.2,193.6,74.1z M193.9,74.3c0.2,0.1,0.4,0.3,0.5,0.5C194.3,74.6,194.1,74.4,193.9,74.3z M192.9,70.5H57.1
			c-0.2,0-0.4,0-0.5,0.1v-3.2c0-0.7-0.4-1.3-1-1.6c-0.1-0.1-0.3-0.2-0.3-0.2v-6.4c0-0.1,0-0.1,0.1-0.2h139.3c0,0,0.1,0.1,0.1,0.2
			v6.5c0,0.1-0.1,0.2-0.1,0.2c-0.5,0.3-0.8,0.9-0.8,1.5v3.2C193.5,70.5,193.2,70.5,192.9,70.5z M59.9,36.4c0.1,0,0.2,0,0.3,0.1
			l5.9,3.8c1.1,0.7,2.5,0.4,3.2-0.6l2.2-3.1c0.4-0.5,1-0.9,1.7-0.9c0.8,0,76.5-1.9,103.6,0l0.1,0c0.8,0,1.5,0.4,1.9,1l1.8,2.7
			c0.8,1.2,2.4,1.5,3.6,0.8l6.1-3.8c0.1-0.1,0.2-0.1,0.3,0l1.2,0.3v18.6H58.4V36.8L59.9,36.4z M190.1,141.1l-1,2.3V113h0.5
			c0.3,0,0.6,0.2,0.6,0.6V141.1z M187.9,143.8h-4.5V113h4.5V143.8z M182.2,143.8h-5.9V113h5.9V143.8z M175.1,143.8h-4.5V113h4.5
			V143.8z M169.5,143.8H165V113h4.5V143.8z M163.8,143.8h-4.5V113h4.5V143.8z M158.1,143.8h-4.5V113h4.5V143.8z M152.5,143.8H148
			V113h4.5V143.8z M146.8,143.8h-4.5V113h4.5V143.8z M141.1,143.8h-4.5V113h4.5V143.8z M135.5,143.8H131V113h4.5V143.8z
			 M129.8,143.8h-4.5V113h4.5V143.8z M124.1,143.8h-4V113h4V143.8z M119,143.8h-5V113h5V143.8z M112.8,143.8h-4.5V113h4.5V143.8z
			 M107.2,143.8h-4.5V113h4.5V143.8z M101.5,143.8H97V113h4.5V143.8z M95.8,143.8h-4.5V113h4.5V143.8z M90.2,143.8h-4.5V113h4.5
			V143.8z M84.5,143.8H80V113h4.5V143.8z M78.8,143.8h-4.5V113h4.5V143.8z M73.2,143.8h-4.5V113h4.5V143.8z M67.5,143.8H63V113h4.5
			V143.8z M61.8,143.8h-0.4l-0.9-2.2v-28.1c0-0.3,0.2-0.6,0.6-0.6h0.7V143.8z M187.4,147.4l-1.6,4.2h-0.2H65.1h-0.7l-1.6-4.2H187.4z
			 M181.2,198.2c0,1.4-0.6,2.8-1.5,3.7v-7.9h1.5V198.2z M69.4,198.2v-4.1h1.5v7.9C70,201,69.4,199.6,69.4,198.2z M72.1,194.1h4.5
			v9.6h-1.6c-1,0-2-0.3-2.9-0.8V194.1z M72.1,202.9c-0.4-0.3-0.8-0.6-1.2-1C71.2,202.3,71.6,202.6,72.1,202.9z M77.7,194.1h4.5v9.6
			h-4.5V194.1z M83.4,194.1h4.5v9.6h-4.5V194.1z M89.1,194.1h4.5v9.6h-4.5V194.1z M94.7,194.1h4.5v9.6h-4.5V194.1z M100.4,194.1h4.5
			v9.6h-4.5V194.1z M106.1,194.1h4.5v9.6h-4.5V194.1z M111.7,194.1h4.5v9.6h-4.5V194.1z M117.4,194.1h5v9.6h-5V194.1z M123.5,194.1
			h4v9.6h-4V194.1z M128.7,194.1h4.5v9.6h-4.5V194.1z M134.4,194.1h4.5v9.6h-4.5V194.1z M140,194.1h4.5v9.6H140V194.1z M145.7,194.1
			h4.5v9.6h-4.5V194.1z M151.4,194.1h4.5v9.6h-4.5V194.1z M157,194.1h4.5v9.6H157V194.1z M162.7,194.1h4.5v9.6h-4.5V194.1z
			 M168.4,194.1h4.5v9.6h-4.5V194.1z M174,194.1h4.5v8.8c-0.8,0.5-1.8,0.8-2.9,0.8H174V194.1z M179.7,201.9c-0.3,0.4-0.7,0.7-1.2,1
			C178.9,202.6,179.3,202.3,179.7,201.9z M180.7,190.5H70.1c-0.3-1.3-0.9-2.5-1.5-3.6h113.7C181.6,188,181,189.2,180.7,190.5z
			 M165.5,242.6c-10.2,1.2-24.8,1.9-40.2,1.9c-15.3,0-29.9-0.7-40.2-1.9l0-2.1c11.9,0.8,25.8,1.3,40.2,1.3c14.3,0,28.3-0.5,40.2-1.3
			L165.5,242.6z M178.8,235.8c-13.8,1.6-33.3,2.5-53.5,2.5s-39.7-0.9-53.5-2.5c-0.7-0.1-1.2-0.6-1.2-1.3l0-24.6
			c0-0.1,0.1-0.4,0.3-0.9c0.2-0.5,0.3-1.1,0.2-1.6l-0.2-1.1c1.2,0.6,2.6,0.9,4,0.9h100.7c1.3,0,2.6-0.3,3.7-0.8l-0.1,0.4
			c-0.2,0.8,0,1.6,0.4,2.2c0.1,0.2,0.3,0.4,0.3,0.8l0,24.6C179.9,235.1,179.4,235.7,178.8,235.8z M184.2,183.5H66.5v-28.4h117.7
			V183.5z M188.8,104.5c-0.1,0.3-0.2,0.5-0.2,0.8v4.1H61.5v-4.1c0-0.3-0.1-0.5-0.2-0.8l-4.2-8.4h135.7c0.1,0,0.2,0,0.4,0l0,0
			L188.8,104.5z"/>
	</g>
</g>
</svg>
