<?xml version="1.0" encoding="utf-8"?>
<!-- Generator: Adobe Illustrator 24.3.2, SVG Export Plug-In . SVG Version: 6.00 Build 0)  -->
<svg version="1.1" xmlns="http://www.w3.org/2000/svg" xmlns:xlink="http://www.w3.org/1999/xlink" x="0px" y="0px"
	 viewBox="0 0 250 250" style="enable-background:new 0 0 250 250;" xml:space="preserve">
<style type="text/css">
	.st0{opacity:0.5;}
	.st1{clip-path:url(#SVGID_2_);fill:none;stroke:#00D905;stroke-width:3.5198;stroke-miterlimit:10;}
	.st2{clip-path:url(#SVGID_4_);fill:none;stroke:#00D905;stroke-width:1.1733;stroke-linecap:round;stroke-miterlimit:10;}
	.st3{clip-path:url(#SVGID_6_);fill:none;stroke:#00D905;stroke-width:3.5198;stroke-miterlimit:10;}
	.st4{clip-path:url(#SVGID_8_);fill:none;stroke:#00D905;stroke-width:1.1733;stroke-linecap:round;stroke-miterlimit:10;}
	.st5{clip-path:url(#SVGID_10_);fill:none;stroke:#00D905;stroke-width:3.5198;stroke-miterlimit:10;}
	.st6{clip-path:url(#SVGID_10_);fill:none;stroke:#00D905;stroke-width:3.5198;stroke-linecap:round;stroke-miterlimit:10;}
	.st7{clip-path:url(#SVGID_12_);fill:none;stroke:#00D905;stroke-width:1.1733;stroke-linecap:round;stroke-miterlimit:10;}
	.st8{clip-path:url(#SVGID_14_);fill:none;stroke:#00D905;stroke-width:3.5198;stroke-miterlimit:10;}
	.st9{fill:none;}
	.st10{fill:none;stroke:#000000;stroke-width:5.3573;stroke-linecap:round;stroke-linejoin:round;}
	.st11{fill:none;stroke:#000000;stroke-width:5.6884;stroke-linecap:round;stroke-linejoin:round;}
	.st12{fill:none;stroke:#000000;stroke-width:6;stroke-linecap:round;stroke-linejoin:round;}
	.st13{fill:none;stroke:#000000;stroke-width:8;stroke-linejoin:round;}
	.st14{fill:none;stroke:#000000;stroke-width:8;stroke-linecap:round;stroke-linejoin:round;}
	.st15{fill:#FFDD00;}
	.st16{display:none;}
	.st17{fill:#FFFFFF;}
	.st18{clip-path:url(#SVGID_16_);fill:#FFDD00;}
	.st19{clip-path:url(#SVGID_18_);fill:url(#SVGID_19_);}
	.st20{clip-path:url(#SVGID_21_);fill:url(#SVGID_22_);}
	.st21{clip-path:url(#SVGID_24_);fill:url(#SVGID_25_);}
	.st22{clip-path:url(#SVGID_27_);fill:url(#SVGID_28_);}
	.st23{clip-path:url(#SVGID_30_);fill:url(#SVGID_31_);}
	.st24{clip-path:url(#SVGID_33_);fill:url(#SVGID_34_);}
	.st25{clip-path:url(#SVGID_36_);fill:url(#SVGID_37_);}
	.st26{clip-path:url(#SVGID_39_);fill:url(#SVGID_40_);}
	.st27{clip-path:url(#SVGID_42_);fill:url(#SVGID_43_);}
	.st28{clip-path:url(#SVGID_45_);fill:url(#SVGID_46_);}
	.st29{fill:url(#SVGID_47_);}
	.st30{fill:url(#SVGID_48_);}
	.st31{fill:url(#SVGID_49_);}
	.st32{fill:url(#SVGID_50_);}
	.st33{fill:url(#SVGID_51_);}
	.st34{fill:url(#SVGID_52_);}
	.st35{fill:url(#SVGID_53_);}
	.st36{fill:url(#SVGID_54_);}
	.st37{fill:url(#SVGID_55_);}
	.st38{fill:url(#SVGID_56_);}
	.st39{clip-path:url(#SVGID_58_);fill:#0B0204;}
	.st40{fill:#EFEFEF;}
	.st41{clip-path:url(#SVGID_60_);fill:#FFDD00;}
	.st42{clip-path:url(#SVGID_62_);fill:url(#SVGID_63_);}
	.st43{clip-path:url(#SVGID_65_);fill:url(#SVGID_66_);}
	.st44{clip-path:url(#SVGID_68_);fill:url(#SVGID_69_);}
	.st45{clip-path:url(#SVGID_71_);fill:url(#SVGID_72_);}
	.st46{clip-path:url(#SVGID_74_);fill:url(#SVGID_75_);}
	.st47{clip-path:url(#SVGID_77_);fill:url(#SVGID_78_);}
	.st48{clip-path:url(#SVGID_80_);fill:url(#SVGID_81_);}
	.st49{clip-path:url(#SVGID_83_);fill:url(#SVGID_84_);}
	.st50{clip-path:url(#SVGID_86_);fill:url(#SVGID_87_);}
	.st51{clip-path:url(#SVGID_89_);fill:url(#SVGID_90_);}
	.st52{fill:url(#SVGID_91_);}
	.st53{fill:url(#SVGID_92_);}
	.st54{fill:url(#SVGID_93_);}
	.st55{fill:url(#SVGID_94_);}
	.st56{fill:url(#SVGID_95_);}
	.st57{fill:url(#SVGID_96_);}
	.st58{fill:url(#SVGID_97_);}
	.st59{fill:url(#SVGID_98_);}
	.st60{fill:url(#SVGID_99_);}
	.st61{fill:url(#SVGID_100_);}
	.st62{clip-path:url(#SVGID_102_);fill:#0B0204;}
	.st63{clip-path:url(#SVGID_104_);fill:#FFDD00;}
	.st64{clip-path:url(#SVGID_106_);fill:url(#SVGID_107_);}
	.st65{clip-path:url(#SVGID_109_);fill:url(#SVGID_110_);}
	.st66{clip-path:url(#SVGID_112_);fill:url(#SVGID_113_);}
	.st67{clip-path:url(#SVGID_115_);fill:url(#SVGID_116_);}
	.st68{clip-path:url(#SVGID_118_);fill:url(#SVGID_119_);}
	.st69{clip-path:url(#SVGID_121_);fill:url(#SVGID_122_);}
	.st70{clip-path:url(#SVGID_124_);fill:url(#SVGID_125_);}
	.st71{clip-path:url(#SVGID_127_);fill:url(#SVGID_128_);}
	.st72{clip-path:url(#SVGID_130_);fill:url(#SVGID_131_);}
	.st73{clip-path:url(#SVGID_133_);fill:url(#SVGID_134_);}
	.st74{fill:url(#SVGID_135_);}
	.st75{fill:url(#SVGID_136_);}
	.st76{fill:url(#SVGID_137_);}
	.st77{fill:url(#SVGID_138_);}
	.st78{fill:url(#SVGID_139_);}
	.st79{fill:url(#SVGID_140_);}
	.st80{fill:url(#SVGID_141_);}
	.st81{fill:url(#SVGID_142_);}
	.st82{fill:url(#SVGID_143_);}
	.st83{fill:url(#SVGID_144_);}
	.st84{clip-path:url(#SVGID_146_);fill:#0B0204;}
	.st85{clip-path:url(#SVGID_148_);fill:#FFDD00;}
	.st86{clip-path:url(#SVGID_150_);fill:url(#SVGID_151_);}
	.st87{clip-path:url(#SVGID_153_);fill:url(#SVGID_154_);}
	.st88{clip-path:url(#SVGID_156_);fill:url(#SVGID_157_);}
	.st89{clip-path:url(#SVGID_159_);fill:url(#SVGID_160_);}
	.st90{clip-path:url(#SVGID_162_);fill:url(#SVGID_163_);}
	.st91{clip-path:url(#SVGID_165_);fill:url(#SVGID_166_);}
	.st92{clip-path:url(#SVGID_168_);fill:url(#SVGID_169_);}
	.st93{clip-path:url(#SVGID_171_);fill:url(#SVGID_172_);}
	.st94{clip-path:url(#SVGID_174_);fill:url(#SVGID_175_);}
	.st95{clip-path:url(#SVGID_177_);fill:url(#SVGID_178_);}
	.st96{fill:url(#SVGID_179_);}
	.st97{fill:url(#SVGID_180_);}
	.st98{fill:url(#SVGID_181_);}
	.st99{fill:url(#SVGID_182_);}
	.st100{fill:url(#SVGID_183_);}
	.st101{fill:url(#SVGID_184_);}
	.st102{fill:url(#SVGID_185_);}
	.st103{fill:url(#SVGID_186_);}
	.st104{fill:url(#SVGID_187_);}
	.st105{fill:url(#SVGID_188_);}
	.st106{clip-path:url(#SVGID_190_);fill:#0B0204;}
	.st107{clip-path:url(#SVGID_192_);fill:#FFDD00;}
	.st108{clip-path:url(#SVGID_194_);fill:url(#SVGID_195_);}
	.st109{clip-path:url(#SVGID_197_);fill:url(#SVGID_198_);}
	.st110{clip-path:url(#SVGID_200_);fill:url(#SVGID_201_);}
	.st111{clip-path:url(#SVGID_203_);fill:url(#SVGID_204_);}
	.st112{clip-path:url(#SVGID_206_);fill:url(#SVGID_207_);}
	.st113{clip-path:url(#SVGID_209_);fill:url(#SVGID_210_);}
	.st114{clip-path:url(#SVGID_212_);fill:url(#SVGID_213_);}
	.st115{clip-path:url(#SVGID_215_);fill:url(#SVGID_216_);}
	.st116{clip-path:url(#SVGID_218_);fill:url(#SVGID_219_);}
	.st117{clip-path:url(#SVGID_221_);fill:url(#SVGID_222_);}
	.st118{fill:url(#SVGID_223_);}
	.st119{fill:url(#SVGID_224_);}
	.st120{fill:url(#SVGID_225_);}
	.st121{fill:url(#SVGID_226_);}
	.st122{fill:url(#SVGID_227_);}
	.st123{fill:url(#SVGID_228_);}
	.st124{fill:url(#SVGID_229_);}
	.st125{fill:url(#SVGID_230_);}
	.st126{fill:url(#SVGID_231_);}
	.st127{fill:url(#SVGID_232_);}
	.st128{clip-path:url(#SVGID_234_);fill:#0B0204;}
	.st129{fill:#F44336;}
	.st130{fill:#ECEFF1;}
	.st131{fill:#3F51B5;}
	.st132{fill:#E91E26;}
	.st133{fill:#1B5E20;}
	.st134{fill:#D50000;}
	.st135{fill:#F0A11C;}
	.st136{fill:#6E7A2F;}
	.st137{fill:none;stroke:#000000;stroke-width:3.5198;stroke-linecap:round;stroke-linejoin:round;}
	.st138{fill:none;stroke:#000000;stroke-width:3.5198;stroke-miterlimit:10;}
	.st139{clip-path:url(#SVGID_236_);}
	.st140{fill:none;stroke:#000000;stroke-width:1.1733;stroke-linecap:round;stroke-miterlimit:10;}
	.st141{fill:none;stroke:#000000;stroke-width:5;stroke-miterlimit:10;}
	.st142{fill:none;stroke:#000000;stroke-width:3.3;stroke-miterlimit:10;}
	.st143{clip-path:url(#SVGID_238_);}
	.st144{clip-path:url(#SVGID_240_);}
	.st145{clip-path:url(#SVGID_242_);}
	.st146{fill:none;stroke:#000000;stroke-width:3.5198;stroke-linejoin:round;stroke-miterlimit:10;}
	.st147{fill:none;stroke:#000000;stroke-width:3.5198;stroke-linecap:round;stroke-miterlimit:10;}
	.st148{fill:#CCCCCC;}
	.st149{fill:none;stroke:#000000;stroke-width:4.4081;stroke-linecap:round;stroke-miterlimit:10;}
	.st150{fill:none;stroke:#CCCCCC;stroke-width:4.6823;stroke-linecap:round;stroke-linejoin:round;}
	.st151{fill:none;stroke:#000000;stroke-width:4.6823;stroke-linecap:round;stroke-linejoin:round;}
	.st152{fill:#FFFFFF;stroke:#000000;stroke-width:4.6823;stroke-linecap:round;stroke-linejoin:round;}
</style>
<g id="Layer_1">
</g>
<g id="icons">
	<g>
		<path d="M239.8,103.8c1.1-1,1.7-2.5,1.7-4.1v-0.7c0-3.2-2.6-5.7-5.7-5.7h-32.4c-3.2,0-5.7,2.6-5.7,5.7v0.7c0,1.5,0.6,2.8,1.5,3.9
			h-1.4c-0.1-0.1-0.2-0.1-0.3-0.2l-4.1-24.5c-1.4-9.6-8.3-16.1-17.2-16.1H139c-8.9,0-15.8,6.5-17.2,16.1l-1.5,8.9h-6.2
			c-2.3,0-4.2,1.9-4.2,4.2v9.1c0,1,0.3,1.8,0.9,2.5H74.4l-0.2-2.8l0-0.1c-0.3-2.3-1.8-4.2-3.8-5.1c-1.5-0.7-3.1-1-4.7-1H48.4
			c-0.3-0.1-0.6-0.1-0.8-0.2c0,0,0,0,0,0c-2.2-0.6-4.8-0.9-7.3-0.9c-4,0-8.4,0.7-10.5,2.5c-2.1,0.7-4.2,1.7-6.2,3l-5.9,4h-2.8
			c-2.6,0-5.1,1.2-7.3,3.5c-3.7,3.9-5.8,10.4-5.6,14.1L0.8,232.2c0,11,1.7,14,14,14h127.7c0.1,0,0.1,0,0.2,0c0.1,0,0.2,0,0.3,0.1
			c1,0.2,2,0.4,3.1,0.6c0.3,0.1,0.7,0.1,1,0.2c0.4,0.1,0.7,0.1,1.1,0.2c0.6,0.1,1.3,0.2,1.9,0.2l0.1,0c0.1,0,0.1,0,0.2,0
			c0,0,0.1,0,0.1,0c0.5,0.1,1,0.1,1.6,0.1l0.2,0c0.6,0,1.1,0.1,1.7,0.1l0.4,0c0,0,0,0,0,0c0.1,0,0.1,0,0.2,0c0.5,0,0.9,0,1.4,0.1
			l0.4,0c0.7,0,1.4,0,2,0c0.7,0,1.4,0,2,0l0.4,0c0.5,0,1,0,1.4-0.1c0,0,0.1,0,0.1,0c0,0,0,0,0.1,0l0.4,0c0.6,0,1.1-0.1,1.7-0.1
			l0.2,0c0.5,0,0.9-0.1,1.4-0.1c0.1,0,0.2,0,0.3,0c0,0,0.1,0,0.1,0l0.1,0c0.6-0.1,1.3-0.1,1.9-0.2c0.3,0,0.7-0.1,1.1-0.2
			c0.3,0,0.7-0.1,1-0.2c1-0.2,2.1-0.3,3.1-0.6c0.1,0,0.2,0,0.3-0.1c0.1,0,0.1,0,0.2,0h60.2c7.7,0,14-6.3,14-14V115.1
			C248.5,112,248.5,105.3,239.8,103.8z M245,115.1v4.9h-27.7c-4.2-4.8-8.9-9.2-14.1-12.9h0.6v-1.6h31.7v1.5l1.7,0.1
			C245,107.4,245,111.8,245,115.1z M173.4,242.8c-0.2,0-0.4,0.1-0.6,0.1c-0.9,0.2-1.8,0.3-2.7,0.5c-0.4,0.1-0.7,0.1-1.1,0.2
			c-1,0.1-2,0.3-3,0.4c-0.1,0-0.2,0-0.3,0c-1.2,0.1-2.3,0.2-3.5,0.3c-0.1,0-0.1,0-0.2,0c-0.9,0-1.8,0.1-2.7,0.1c-0.7,0-1.3,0-2,0
			c-0.9,0-1.8,0-2.7-0.1c-0.1,0-0.1,0-0.2,0c-1.2-0.1-2.3-0.2-3.5-0.3c-0.1,0-0.2,0-0.3,0c-1-0.1-2-0.2-3.1-0.4
			c-0.3-0.1-0.7-0.1-1-0.2c-0.9-0.1-1.8-0.3-2.7-0.5c-0.2,0-0.4-0.1-0.6-0.1c-33.6-7-59-36.8-59-72.5c0-26.7,14.3-50.2,35.6-63.2
			h0.7l0.1-0.4c11-6.6,23.9-10.3,37.7-10.3c40.8,0,74,33.2,74,74C232.4,206,207,235.8,173.4,242.8z M75.3,107.1h38.4
			c-5.2,3.7-10,8-14.1,12.9H78.6C77.8,114.7,76.3,109.9,75.3,107.1z M126.8,99.6c0.5-2.5,1.6-5.4,3.3-6.1c3.4-1.4,13-4.6,28.3-4.6
			s24.9,3.2,28.3,4.6c1.8,0.7,2.8,3.7,3.3,6.1c-9.7-4.3-20.4-6.8-31.6-6.8C147.1,92.8,136.4,95.2,126.8,99.6z M201.2,99.1
			c0-1.2,1-2.2,2.2-2.2h32.4c1.2,0,2.2,1,2.2,2.2v0.7c0,1.2-1,2.2-2.2,2.2h-32.4c-1.2,0-2.2-1-2.2-2.2V99.1z M139,66.3h37.3
			c7.1,0,12.6,5.3,13.7,13.1l2.8,16.6c-0.8-2.4-2.3-4.8-4.6-5.8c-3.6-1.5-13.7-4.8-29.7-4.8s-26.1,3.4-29.7,4.8
			c-4.6,1.9-5.6,9.2-5.8,11.2c-0.5,0.2-1,0.5-1.5,0.7l3.8-22.8C126.4,71.6,131.9,66.3,139,66.3z M113.4,92c0-0.4,0.3-0.7,0.7-0.7
			h5.6l-1.8,10.5h-3.8c-0.4,0-0.7-0.3-0.7-0.7V92z M29.6,100.6c2,1.9,6.6,2.6,10.7,2.6c5,0,10.8-1.1,11.6-4.2
			c2.2,0.8,3.5,1.6,3.9,2.1c-0.5,1.2-5.8,4.1-15.2,4.9c-7.7,0.6-13.4-1.1-14.8-2.1C26.2,103.2,27.5,101.9,29.6,100.6z M40.2,96.9
			c4.1,0,6.9,0.8,7.9,1.4c-1,0.6-3.8,1.4-7.9,1.4s-6.9-0.8-7.9-1.4C33.4,97.7,36.1,96.9,40.2,96.9z M10.1,108.8
			c1.5-1.6,3.1-2.4,4.7-2.4h3.9l3.4-2.3c0,0.6,0.2,1.4,1.1,2.2c2.2,2,8,3.3,14.2,3.3c1.1,0,2.3,0,3.4-0.1c8.9-0.7,18.5-3.7,18.5-8.6
			c0-1.1-0.7-2.1-1.8-3h8.1c1.1,0,2.2,0.2,3.2,0.7c0.9,0.4,1.6,1.3,1.8,2.4l0.4,6.1h0.5c0.8,2,2.4,6.8,3.4,12
			c0.1,0.4,0.1,0.8,0.2,1.2c-0.3,0.2-0.6,0.5-0.8,0.8l-4,6.6c-0.6,1.1-1.8,1.7-3,1.7H19.8c-0.8,0-1.5-0.5-1.8-1.2l-2-5
			c-0.8-2-2.7-3.3-4.8-3.3H5.5C5.5,117.3,7.1,112.1,10.1,108.8z M4.3,232.2l1.2-108.7h5.8c0.7,0,1.3,0.4,1.5,1l2,5
			c0.8,2.1,2.8,3.4,5,3.4h47.4c2.5,0,4.8-1.3,6-3.4l2.3-3.8c0.1,4.5-0.9,9-4.1,11.5c-14.9,11.9-14.3,26.6-14.3,28v77.5H14.8
			C4.7,242.7,4.3,241.5,4.3,232.2z M60.8,242.7v-77.5c0,0,0-0.1,0-0.1c0-0.6-0.9-14.1,12.9-25c4.7-3.7,5.7-10.2,5.3-16.5h17.7
			c-9.9,13-15.8,29.2-15.8,46.8c0,33,20.7,61.2,49.8,72.4H60.8z M234.4,242.7h-48.3c29.1-11.2,49.8-39.4,49.8-72.4
			c0-17.6-5.9-33.8-15.8-46.8H245v108.7C245,238,240.2,242.7,234.4,242.7z"/>
		<path d="M158.4,100.7c-38.4,0-69.6,31.2-69.6,69.6c0,38.4,31.2,69.6,69.6,69.6c38.4,0,69.6-31.2,69.6-69.6
			C228,131.9,196.8,100.7,158.4,100.7z M158.4,236.5c-36.5,0-66.1-29.7-66.1-66.1c0-36.5,29.7-66.1,66.1-66.1
			c36.5,0,66.1,29.7,66.1,66.1C224.5,206.8,194.9,236.5,158.4,236.5z"/>
		<path d="M158.4,115c-30.5,0-55.4,24.8-55.4,55.4s24.8,55.4,55.4,55.4s55.4-24.8,55.4-55.4S188.9,115,158.4,115z M158.4,222.2
			c-28.6,0-51.8-23.3-51.8-51.8s23.3-51.8,51.8-51.8c28.6,0,51.9,23.3,51.9,51.8S187,222.2,158.4,222.2z"/>
		<path d="M158.4,136.9c-18.4,0-33.5,15-33.5,33.5c0,1,0.8,1.8,1.8,1.8s1.8-0.8,1.8-1.8c0-16.5,13.4-29.9,29.9-29.9
			c1,0,1.8-0.8,1.8-1.8S159.4,136.9,158.4,136.9z"/>
		<path d="M232,218h-1.3c-3.4,0-6.2,2.8-6.2,6.2v7.1c0,3.4,2.8,6.2,6.2,6.2h1.3c3.4,0,6.2-2.8,6.2-6.2v-7.1
			C238.2,220.7,235.5,218,232,218z M234.7,231.2c0,1.5-1.2,2.7-2.7,2.7h-1.3c-1.5,0-2.7-1.2-2.7-2.7v-7.1c0-1.5,1.2-2.7,2.7-2.7h1.3
			c1.5,0,2.7,1.2,2.7,2.7V231.2z"/>
	</g>
</g>
</svg>
