<?xml version="1.0" encoding="utf-8"?>
<!-- Generator: Adobe Illustrator 24.3.2, SVG Export Plug-In . SVG Version: 6.00 Build 0)  -->
<svg version="1.1" xmlns="http://www.w3.org/2000/svg" xmlns:xlink="http://www.w3.org/1999/xlink" x="0px" y="0px"
	 viewBox="0 0 250 250" style="enable-background:new 0 0 250 250;" xml:space="preserve">
<style type="text/css">
	.st0{opacity:0.5;}
	.st1{clip-path:url(#SVGID_2_);fill:none;stroke:#00D905;stroke-width:3.5198;stroke-miterlimit:10;}
	.st2{clip-path:url(#SVGID_4_);fill:none;stroke:#00D905;stroke-width:1.1733;stroke-linecap:round;stroke-miterlimit:10;}
	.st3{clip-path:url(#SVGID_6_);fill:none;stroke:#00D905;stroke-width:3.5198;stroke-miterlimit:10;}
	.st4{clip-path:url(#SVGID_8_);fill:none;stroke:#00D905;stroke-width:1.1733;stroke-linecap:round;stroke-miterlimit:10;}
	.st5{clip-path:url(#SVGID_10_);fill:none;stroke:#00D905;stroke-width:3.5198;stroke-miterlimit:10;}
	.st6{clip-path:url(#SVGID_10_);fill:none;stroke:#00D905;stroke-width:3.5198;stroke-linecap:round;stroke-miterlimit:10;}
	.st7{clip-path:url(#SVGID_12_);fill:none;stroke:#00D905;stroke-width:1.1733;stroke-linecap:round;stroke-miterlimit:10;}
	.st8{clip-path:url(#SVGID_14_);fill:none;stroke:#00D905;stroke-width:3.5198;stroke-miterlimit:10;}
	.st9{fill:none;}
	.st10{fill:none;stroke:#000000;stroke-width:5.3573;stroke-linecap:round;stroke-linejoin:round;}
	.st11{fill:none;stroke:#000000;stroke-width:5.6884;stroke-linecap:round;stroke-linejoin:round;}
	.st12{fill:none;stroke:#000000;stroke-width:6;stroke-linecap:round;stroke-linejoin:round;}
	.st13{fill:none;stroke:#000000;stroke-width:8;stroke-linejoin:round;}
	.st14{fill:none;stroke:#000000;stroke-width:8;stroke-linecap:round;stroke-linejoin:round;}
	.st15{fill:#FFDD00;}
	.st16{display:none;}
	.st17{fill:#FFFFFF;}
	.st18{clip-path:url(#SVGID_16_);fill:#FFDD00;}
	.st19{clip-path:url(#SVGID_18_);fill:url(#SVGID_19_);}
	.st20{clip-path:url(#SVGID_21_);fill:url(#SVGID_22_);}
	.st21{clip-path:url(#SVGID_24_);fill:url(#SVGID_25_);}
	.st22{clip-path:url(#SVGID_27_);fill:url(#SVGID_28_);}
	.st23{clip-path:url(#SVGID_30_);fill:url(#SVGID_31_);}
	.st24{clip-path:url(#SVGID_33_);fill:url(#SVGID_34_);}
	.st25{clip-path:url(#SVGID_36_);fill:url(#SVGID_37_);}
	.st26{clip-path:url(#SVGID_39_);fill:url(#SVGID_40_);}
	.st27{clip-path:url(#SVGID_42_);fill:url(#SVGID_43_);}
	.st28{clip-path:url(#SVGID_45_);fill:url(#SVGID_46_);}
	.st29{fill:url(#SVGID_47_);}
	.st30{fill:url(#SVGID_48_);}
	.st31{fill:url(#SVGID_49_);}
	.st32{fill:url(#SVGID_50_);}
	.st33{fill:url(#SVGID_51_);}
	.st34{fill:url(#SVGID_52_);}
	.st35{fill:url(#SVGID_53_);}
	.st36{fill:url(#SVGID_54_);}
	.st37{fill:url(#SVGID_55_);}
	.st38{fill:url(#SVGID_56_);}
	.st39{clip-path:url(#SVGID_58_);fill:#0B0204;}
	.st40{fill:#EFEFEF;}
	.st41{clip-path:url(#SVGID_60_);fill:#FFDD00;}
	.st42{clip-path:url(#SVGID_62_);fill:url(#SVGID_63_);}
	.st43{clip-path:url(#SVGID_65_);fill:url(#SVGID_66_);}
	.st44{clip-path:url(#SVGID_68_);fill:url(#SVGID_69_);}
	.st45{clip-path:url(#SVGID_71_);fill:url(#SVGID_72_);}
	.st46{clip-path:url(#SVGID_74_);fill:url(#SVGID_75_);}
	.st47{clip-path:url(#SVGID_77_);fill:url(#SVGID_78_);}
	.st48{clip-path:url(#SVGID_80_);fill:url(#SVGID_81_);}
	.st49{clip-path:url(#SVGID_83_);fill:url(#SVGID_84_);}
	.st50{clip-path:url(#SVGID_86_);fill:url(#SVGID_87_);}
	.st51{clip-path:url(#SVGID_89_);fill:url(#SVGID_90_);}
	.st52{fill:url(#SVGID_91_);}
	.st53{fill:url(#SVGID_92_);}
	.st54{fill:url(#SVGID_93_);}
	.st55{fill:url(#SVGID_94_);}
	.st56{fill:url(#SVGID_95_);}
	.st57{fill:url(#SVGID_96_);}
	.st58{fill:url(#SVGID_97_);}
	.st59{fill:url(#SVGID_98_);}
	.st60{fill:url(#SVGID_99_);}
	.st61{fill:url(#SVGID_100_);}
	.st62{clip-path:url(#SVGID_102_);fill:#0B0204;}
	.st63{clip-path:url(#SVGID_104_);fill:#FFDD00;}
	.st64{clip-path:url(#SVGID_106_);fill:url(#SVGID_107_);}
	.st65{clip-path:url(#SVGID_109_);fill:url(#SVGID_110_);}
	.st66{clip-path:url(#SVGID_112_);fill:url(#SVGID_113_);}
	.st67{clip-path:url(#SVGID_115_);fill:url(#SVGID_116_);}
	.st68{clip-path:url(#SVGID_118_);fill:url(#SVGID_119_);}
	.st69{clip-path:url(#SVGID_121_);fill:url(#SVGID_122_);}
	.st70{clip-path:url(#SVGID_124_);fill:url(#SVGID_125_);}
	.st71{clip-path:url(#SVGID_127_);fill:url(#SVGID_128_);}
	.st72{clip-path:url(#SVGID_130_);fill:url(#SVGID_131_);}
	.st73{clip-path:url(#SVGID_133_);fill:url(#SVGID_134_);}
	.st74{fill:url(#SVGID_135_);}
	.st75{fill:url(#SVGID_136_);}
	.st76{fill:url(#SVGID_137_);}
	.st77{fill:url(#SVGID_138_);}
	.st78{fill:url(#SVGID_139_);}
	.st79{fill:url(#SVGID_140_);}
	.st80{fill:url(#SVGID_141_);}
	.st81{fill:url(#SVGID_142_);}
	.st82{fill:url(#SVGID_143_);}
	.st83{fill:url(#SVGID_144_);}
	.st84{clip-path:url(#SVGID_146_);fill:#0B0204;}
	.st85{clip-path:url(#SVGID_148_);fill:#FFDD00;}
	.st86{clip-path:url(#SVGID_150_);fill:url(#SVGID_151_);}
	.st87{clip-path:url(#SVGID_153_);fill:url(#SVGID_154_);}
	.st88{clip-path:url(#SVGID_156_);fill:url(#SVGID_157_);}
	.st89{clip-path:url(#SVGID_159_);fill:url(#SVGID_160_);}
	.st90{clip-path:url(#SVGID_162_);fill:url(#SVGID_163_);}
	.st91{clip-path:url(#SVGID_165_);fill:url(#SVGID_166_);}
	.st92{clip-path:url(#SVGID_168_);fill:url(#SVGID_169_);}
	.st93{clip-path:url(#SVGID_171_);fill:url(#SVGID_172_);}
	.st94{clip-path:url(#SVGID_174_);fill:url(#SVGID_175_);}
	.st95{clip-path:url(#SVGID_177_);fill:url(#SVGID_178_);}
	.st96{fill:url(#SVGID_179_);}
	.st97{fill:url(#SVGID_180_);}
	.st98{fill:url(#SVGID_181_);}
	.st99{fill:url(#SVGID_182_);}
	.st100{fill:url(#SVGID_183_);}
	.st101{fill:url(#SVGID_184_);}
	.st102{fill:url(#SVGID_185_);}
	.st103{fill:url(#SVGID_186_);}
	.st104{fill:url(#SVGID_187_);}
	.st105{fill:url(#SVGID_188_);}
	.st106{clip-path:url(#SVGID_190_);fill:#0B0204;}
	.st107{clip-path:url(#SVGID_192_);fill:#FFDD00;}
	.st108{clip-path:url(#SVGID_194_);fill:url(#SVGID_195_);}
	.st109{clip-path:url(#SVGID_197_);fill:url(#SVGID_198_);}
	.st110{clip-path:url(#SVGID_200_);fill:url(#SVGID_201_);}
	.st111{clip-path:url(#SVGID_203_);fill:url(#SVGID_204_);}
	.st112{clip-path:url(#SVGID_206_);fill:url(#SVGID_207_);}
	.st113{clip-path:url(#SVGID_209_);fill:url(#SVGID_210_);}
	.st114{clip-path:url(#SVGID_212_);fill:url(#SVGID_213_);}
	.st115{clip-path:url(#SVGID_215_);fill:url(#SVGID_216_);}
	.st116{clip-path:url(#SVGID_218_);fill:url(#SVGID_219_);}
	.st117{clip-path:url(#SVGID_221_);fill:url(#SVGID_222_);}
	.st118{fill:url(#SVGID_223_);}
	.st119{fill:url(#SVGID_224_);}
	.st120{fill:url(#SVGID_225_);}
	.st121{fill:url(#SVGID_226_);}
	.st122{fill:url(#SVGID_227_);}
	.st123{fill:url(#SVGID_228_);}
	.st124{fill:url(#SVGID_229_);}
	.st125{fill:url(#SVGID_230_);}
	.st126{fill:url(#SVGID_231_);}
	.st127{fill:url(#SVGID_232_);}
	.st128{clip-path:url(#SVGID_234_);fill:#0B0204;}
	.st129{fill:#F44336;}
	.st130{fill:#ECEFF1;}
	.st131{fill:#3F51B5;}
	.st132{fill:#E91E26;}
	.st133{fill:#1B5E20;}
	.st134{fill:#D50000;}
	.st135{fill:#F0A11C;}
	.st136{fill:#6E7A2F;}
	.st137{fill:none;stroke:#000000;stroke-width:3.5198;stroke-linecap:round;stroke-linejoin:round;}
	.st138{fill:none;stroke:#000000;stroke-width:3.5198;stroke-miterlimit:10;}
	.st139{clip-path:url(#SVGID_236_);}
	.st140{fill:none;stroke:#000000;stroke-width:1.1733;stroke-linecap:round;stroke-miterlimit:10;}
	.st141{fill:none;stroke:#000000;stroke-width:5;stroke-miterlimit:10;}
	.st142{fill:none;stroke:#000000;stroke-width:3.3;stroke-miterlimit:10;}
	.st143{clip-path:url(#SVGID_238_);}
	.st144{clip-path:url(#SVGID_240_);}
	.st145{clip-path:url(#SVGID_242_);}
	.st146{fill:none;stroke:#000000;stroke-width:3.5198;stroke-linejoin:round;stroke-miterlimit:10;}
	.st147{fill:none;stroke:#000000;stroke-width:3.5198;stroke-linecap:round;stroke-miterlimit:10;}
	.st148{fill:#CCCCCC;}
	.st149{fill:none;stroke:#000000;stroke-width:4.4081;stroke-linecap:round;stroke-miterlimit:10;}
	.st150{fill:none;stroke:#CCCCCC;stroke-width:4.6823;stroke-linecap:round;stroke-linejoin:round;}
	.st151{fill:none;stroke:#000000;stroke-width:4.6823;stroke-linecap:round;stroke-linejoin:round;}
	.st152{fill:#FFFFFF;stroke:#000000;stroke-width:4.6823;stroke-linecap:round;stroke-linejoin:round;}
</style>
<g id="Layer_1">
</g>
<g id="icons">
	<g>
		<path d="M167.6,38.9h-85c-5.7,0-10.5,4.3-11,9.9l-1.8,19.8l2.8,20.8c0.7,5,5.1,8.8,10.2,8.8h83.8c5.1,0,9.5-3.7,10.2-8.7l3.1-20.9
			l-1.5-19.6C178.1,43.3,173.3,38.9,167.6,38.9z M173.6,89c-0.5,3.3-3.5,5.9-6.9,5.9H82.9c-3.5,0-6.5-2.6-6.9-6l-2.8-20.4l1.7-19.4
			c0.4-3.9,3.7-6.9,7.7-6.9h85c4,0,7.4,3.1,7.7,7l1.4,19.3L173.6,89z"/>
		<path d="M185.9,44.9L185.9,44.9c-0.3-4.3-2.7-8.2-6.2-10.3l-4.4-11.5c-0.9-2.4-3.3-4.1-5.9-4.1H80.5c-2.6,0-5,1.6-5.9,4.1
			l-4.5,11.8c-3.3,2.1-5.4,5.8-5.8,9.8l-2,24.1l3.2,25.4c0.5,3.9,2.7,7.1,5.8,8.9c-1.5,1.3-2.5,3.3-2.5,5.5l0.6,80.7
			c0,20.7,9.5,31.7,27.4,31.7h1.2l0.7,16.5c0.1,2,1.7,3.5,3.7,3.5h5.8v3.4c0,1.5,1.2,2.7,2.7,2.7h26.7c1.5,0,2.7-1.2,2.7-2.7v-3.4
			h5.1c2.5,0,4.5-1.9,4.6-4.4l0.6-15.7h3.8c7,0,13.2-2.9,17.7-7.6h7.7c1.7,0,3.1-1.3,3.1-3v-14.7c0-1.6-1.4-3-3.1-3h-0.8l2.4-84.2
			c0-2.3-1.1-4.4-2.8-5.7c2.9-1.8,4.9-4.9,5.5-8.6l3.5-25.3l0-0.2L185.9,44.9z M147.2,223.8c-4.9,3.2-13.7,5.2-22.9,5.2
			c-9.2,0-18-2-22.9-5.2l-0.7-18c0-0.6,0.2-1.2,0.5-1.7l1.4-2c0.3-0.4,0.7-0.6,1.2-0.6h40.4c0.4,0,0.7,0.2,1,0.4l2,2.1
			c0.4,0.5,0.7,1.1,0.7,1.6L147.2,223.8z M118.4,232.1c1.9,0.2,3.9,0.3,6,0.3c1.9,0,3.9-0.1,5.7-0.2v5.8h-11.7V232.1z M102,237.5
			l-0.4-9.8c3.6,1.8,8.2,3.2,13.4,4v6.2h-12.7C102.2,237.8,102,237.7,102,237.5z M137,244h-25.5v-2.8h3.5h18.3h3.7V244z
			 M145.4,237.8h-12.1v-6.1c5.3-0.7,10.1-2.1,13.7-4l-0.4,8.9C146.7,237.3,146.1,237.8,145.4,237.8z M179.6,196.1v14.1h-4.9
			c2.5-3.8,4-8.3,4.1-13.2l0-0.9H179.6z M174.1,104.7c2.1,0,3.9,1.8,3.9,3.9l-2.5,88.4c-0.3,11.7-9.6,20.8-21.2,20.8h-3.6l0.5-12.1
			c0-1.5-0.6-2.9-1.6-4l-2-2.1c-0.9-0.9-2.1-1.4-3.4-1.4h-40.4c-1.6,0-3.1,0.8-3.9,2.1l-1.4,2c-0.7,1.1-1.1,2.3-1.1,3.6l0.5,11.9
			h-1.1c-16,0-24.1-9.6-24.1-28.4L72,108.6c0-2.2,1.7-3.9,3.9-3.9h1h95.7H174.1z M180.7,93.9c-0.6,4.3-4.1,7.5-8.1,7.5H76.9
			c-4.1,0-7.6-3.3-8.2-7.6l-3.1-25l2-23.8c0.3-3.2,2-6,4.7-7.6l0.5-0.3l4.9-12.8c0.4-1.2,1.6-2,2.8-2h88.8c1.3,0,2.4,0.8,2.8,2
			l4.8,12.7l0.5,0.3c2.9,1.5,4.8,4.5,5,7.9l0,0l1.6,23.6L180.7,93.9z"/>
		<path d="M174.8,34.4c0-5.3-4.3-9.7-9.7-9.7H85c-5.3,0-9.7,4.3-9.7,9.7v1.6h99.4V34.4z M78.9,32.8c0.7-2.7,3.2-4.7,6.1-4.7h80.1
			c2.9,0,5.4,2,6.1,4.7H78.9z"/>
		<path d="M95.3,154.7h59.2c5.8,0,10.5-4.7,10.5-10.5v-23.7c0-5.8-4.7-10.5-10.5-10.5H95.3c-5.8,0-10.5,4.7-10.5,10.5v23.7
			C84.8,150,89.5,154.7,95.3,154.7z M88.1,120.5c0-4,3.2-7.2,7.2-7.2h59.2c4,0,7.2,3.2,7.2,7.2v23.7c0,4-3.2,7.2-7.2,7.2H95.3
			c-4,0-7.2-3.2-7.2-7.2V120.5z"/>
		<path d="M137.1,207.9h-26.2c-2.2,0-4,1.8-4,4v9.3c0,0.1,0,0.2,0,0.3c0,0.1,0,0.2,0,0.3c0,0.7,0.2,1.6,1.4,2.5
			c0.4,0.3,0.8,0.5,1.2,0.7c2.8,1.3,8.1,2.1,14.5,2.1c6.3,0,11.7-0.8,14.5-2.1c0.5-0.2,1-0.4,1.3-0.8c1.1-0.9,1.3-1.8,1.3-2.4
			c0-0.1,0-0.2,0-0.3c0-0.1,0-0.2,0-0.3v-9.3C141.1,209.7,139.3,207.9,137.1,207.9z M137.8,221.6
			C137.8,221.6,137.7,221.6,137.8,221.6l-0.2,0.1c-0.1,0.1-0.2,0.1-0.3,0.2l-0.2,0.1c-1.8,0.9-6.3,1.8-13.1,1.8
			c-6.9,0-11.3-0.9-13.1-1.8l-0.2-0.1c-0.1,0-0.2-0.1-0.2-0.1l-0.1-0.1c0,0-0.1,0-0.1-0.1l0-9.7c0-0.4,0.3-0.7,0.7-0.7h26.2
			c0.4,0,0.7,0.3,0.7,0.7l0,9.3L137.8,221.6z"/>
		<path d="M88.7,211c3,0,5.5-2.5,5.5-5.5s-2.5-5.5-5.5-5.5s-5.5,2.5-5.5,5.5S85.7,211,88.7,211z M88.7,203.3c1.2,0,2.2,1,2.2,2.2
			s-1,2.2-2.2,2.2s-2.2-1-2.2-2.2S87.5,203.3,88.7,203.3z"/>
	</g>
</g>
</svg>
