<?xml version="1.0" encoding="utf-8"?>
<!-- Generator: Adobe Illustrator 24.3.2, SVG Export Plug-In . SVG Version: 6.00 Build 0)  -->
<svg version="1.1" xmlns="http://www.w3.org/2000/svg" xmlns:xlink="http://www.w3.org/1999/xlink" x="0px" y="0px"
	 viewBox="0 0 250 250" style="enable-background:new 0 0 250 250;" xml:space="preserve">
<style type="text/css">
	.st0{opacity:0.5;}
	.st1{clip-path:url(#SVGID_2_);fill:none;stroke:#00D905;stroke-width:3.5198;stroke-miterlimit:10;}
	.st2{clip-path:url(#SVGID_4_);fill:none;stroke:#00D905;stroke-width:1.1733;stroke-linecap:round;stroke-miterlimit:10;}
	.st3{clip-path:url(#SVGID_6_);fill:none;stroke:#00D905;stroke-width:3.5198;stroke-miterlimit:10;}
	.st4{clip-path:url(#SVGID_8_);fill:none;stroke:#00D905;stroke-width:1.1733;stroke-linecap:round;stroke-miterlimit:10;}
	.st5{clip-path:url(#SVGID_10_);fill:none;stroke:#00D905;stroke-width:3.5198;stroke-miterlimit:10;}
	.st6{clip-path:url(#SVGID_10_);fill:none;stroke:#00D905;stroke-width:3.5198;stroke-linecap:round;stroke-miterlimit:10;}
	.st7{clip-path:url(#SVGID_12_);fill:none;stroke:#00D905;stroke-width:1.1733;stroke-linecap:round;stroke-miterlimit:10;}
	.st8{clip-path:url(#SVGID_14_);fill:none;stroke:#00D905;stroke-width:3.5198;stroke-miterlimit:10;}
	.st9{fill:none;}
	.st10{fill:none;stroke:#000000;stroke-width:5.3573;stroke-linecap:round;stroke-linejoin:round;}
	.st11{fill:none;stroke:#000000;stroke-width:5.6884;stroke-linecap:round;stroke-linejoin:round;}
	.st12{fill:none;stroke:#000000;stroke-width:6;stroke-linecap:round;stroke-linejoin:round;}
	.st13{fill:none;stroke:#000000;stroke-width:8;stroke-linejoin:round;}
	.st14{fill:none;stroke:#000000;stroke-width:8;stroke-linecap:round;stroke-linejoin:round;}
	.st15{fill:#FFDD00;}
	.st16{display:none;}
	.st17{fill:#FFFFFF;}
	.st18{clip-path:url(#SVGID_16_);fill:#FFDD00;}
	.st19{clip-path:url(#SVGID_18_);fill:url(#SVGID_19_);}
	.st20{clip-path:url(#SVGID_21_);fill:url(#SVGID_22_);}
	.st21{clip-path:url(#SVGID_24_);fill:url(#SVGID_25_);}
	.st22{clip-path:url(#SVGID_27_);fill:url(#SVGID_28_);}
	.st23{clip-path:url(#SVGID_30_);fill:url(#SVGID_31_);}
	.st24{clip-path:url(#SVGID_33_);fill:url(#SVGID_34_);}
	.st25{clip-path:url(#SVGID_36_);fill:url(#SVGID_37_);}
	.st26{clip-path:url(#SVGID_39_);fill:url(#SVGID_40_);}
	.st27{clip-path:url(#SVGID_42_);fill:url(#SVGID_43_);}
	.st28{clip-path:url(#SVGID_45_);fill:url(#SVGID_46_);}
	.st29{fill:url(#SVGID_47_);}
	.st30{fill:url(#SVGID_48_);}
	.st31{fill:url(#SVGID_49_);}
	.st32{fill:url(#SVGID_50_);}
	.st33{fill:url(#SVGID_51_);}
	.st34{fill:url(#SVGID_52_);}
	.st35{fill:url(#SVGID_53_);}
	.st36{fill:url(#SVGID_54_);}
	.st37{fill:url(#SVGID_55_);}
	.st38{fill:url(#SVGID_56_);}
	.st39{clip-path:url(#SVGID_58_);fill:#0B0204;}
	.st40{fill:#EFEFEF;}
	.st41{clip-path:url(#SVGID_60_);fill:#FFDD00;}
	.st42{clip-path:url(#SVGID_62_);fill:url(#SVGID_63_);}
	.st43{clip-path:url(#SVGID_65_);fill:url(#SVGID_66_);}
	.st44{clip-path:url(#SVGID_68_);fill:url(#SVGID_69_);}
	.st45{clip-path:url(#SVGID_71_);fill:url(#SVGID_72_);}
	.st46{clip-path:url(#SVGID_74_);fill:url(#SVGID_75_);}
	.st47{clip-path:url(#SVGID_77_);fill:url(#SVGID_78_);}
	.st48{clip-path:url(#SVGID_80_);fill:url(#SVGID_81_);}
	.st49{clip-path:url(#SVGID_83_);fill:url(#SVGID_84_);}
	.st50{clip-path:url(#SVGID_86_);fill:url(#SVGID_87_);}
	.st51{clip-path:url(#SVGID_89_);fill:url(#SVGID_90_);}
	.st52{fill:url(#SVGID_91_);}
	.st53{fill:url(#SVGID_92_);}
	.st54{fill:url(#SVGID_93_);}
	.st55{fill:url(#SVGID_94_);}
	.st56{fill:url(#SVGID_95_);}
	.st57{fill:url(#SVGID_96_);}
	.st58{fill:url(#SVGID_97_);}
	.st59{fill:url(#SVGID_98_);}
	.st60{fill:url(#SVGID_99_);}
	.st61{fill:url(#SVGID_100_);}
	.st62{clip-path:url(#SVGID_102_);fill:#0B0204;}
	.st63{clip-path:url(#SVGID_104_);fill:#FFDD00;}
	.st64{clip-path:url(#SVGID_106_);fill:url(#SVGID_107_);}
	.st65{clip-path:url(#SVGID_109_);fill:url(#SVGID_110_);}
	.st66{clip-path:url(#SVGID_112_);fill:url(#SVGID_113_);}
	.st67{clip-path:url(#SVGID_115_);fill:url(#SVGID_116_);}
	.st68{clip-path:url(#SVGID_118_);fill:url(#SVGID_119_);}
	.st69{clip-path:url(#SVGID_121_);fill:url(#SVGID_122_);}
	.st70{clip-path:url(#SVGID_124_);fill:url(#SVGID_125_);}
	.st71{clip-path:url(#SVGID_127_);fill:url(#SVGID_128_);}
	.st72{clip-path:url(#SVGID_130_);fill:url(#SVGID_131_);}
	.st73{clip-path:url(#SVGID_133_);fill:url(#SVGID_134_);}
	.st74{fill:url(#SVGID_135_);}
	.st75{fill:url(#SVGID_136_);}
	.st76{fill:url(#SVGID_137_);}
	.st77{fill:url(#SVGID_138_);}
	.st78{fill:url(#SVGID_139_);}
	.st79{fill:url(#SVGID_140_);}
	.st80{fill:url(#SVGID_141_);}
	.st81{fill:url(#SVGID_142_);}
	.st82{fill:url(#SVGID_143_);}
	.st83{fill:url(#SVGID_144_);}
	.st84{clip-path:url(#SVGID_146_);fill:#0B0204;}
	.st85{clip-path:url(#SVGID_148_);fill:#FFDD00;}
	.st86{clip-path:url(#SVGID_150_);fill:url(#SVGID_151_);}
	.st87{clip-path:url(#SVGID_153_);fill:url(#SVGID_154_);}
	.st88{clip-path:url(#SVGID_156_);fill:url(#SVGID_157_);}
	.st89{clip-path:url(#SVGID_159_);fill:url(#SVGID_160_);}
	.st90{clip-path:url(#SVGID_162_);fill:url(#SVGID_163_);}
	.st91{clip-path:url(#SVGID_165_);fill:url(#SVGID_166_);}
	.st92{clip-path:url(#SVGID_168_);fill:url(#SVGID_169_);}
	.st93{clip-path:url(#SVGID_171_);fill:url(#SVGID_172_);}
	.st94{clip-path:url(#SVGID_174_);fill:url(#SVGID_175_);}
	.st95{clip-path:url(#SVGID_177_);fill:url(#SVGID_178_);}
	.st96{fill:url(#SVGID_179_);}
	.st97{fill:url(#SVGID_180_);}
	.st98{fill:url(#SVGID_181_);}
	.st99{fill:url(#SVGID_182_);}
	.st100{fill:url(#SVGID_183_);}
	.st101{fill:url(#SVGID_184_);}
	.st102{fill:url(#SVGID_185_);}
	.st103{fill:url(#SVGID_186_);}
	.st104{fill:url(#SVGID_187_);}
	.st105{fill:url(#SVGID_188_);}
	.st106{clip-path:url(#SVGID_190_);fill:#0B0204;}
	.st107{clip-path:url(#SVGID_192_);fill:#FFDD00;}
	.st108{clip-path:url(#SVGID_194_);fill:url(#SVGID_195_);}
	.st109{clip-path:url(#SVGID_197_);fill:url(#SVGID_198_);}
	.st110{clip-path:url(#SVGID_200_);fill:url(#SVGID_201_);}
	.st111{clip-path:url(#SVGID_203_);fill:url(#SVGID_204_);}
	.st112{clip-path:url(#SVGID_206_);fill:url(#SVGID_207_);}
	.st113{clip-path:url(#SVGID_209_);fill:url(#SVGID_210_);}
	.st114{clip-path:url(#SVGID_212_);fill:url(#SVGID_213_);}
	.st115{clip-path:url(#SVGID_215_);fill:url(#SVGID_216_);}
	.st116{clip-path:url(#SVGID_218_);fill:url(#SVGID_219_);}
	.st117{clip-path:url(#SVGID_221_);fill:url(#SVGID_222_);}
	.st118{fill:url(#SVGID_223_);}
	.st119{fill:url(#SVGID_224_);}
	.st120{fill:url(#SVGID_225_);}
	.st121{fill:url(#SVGID_226_);}
	.st122{fill:url(#SVGID_227_);}
	.st123{fill:url(#SVGID_228_);}
	.st124{fill:url(#SVGID_229_);}
	.st125{fill:url(#SVGID_230_);}
	.st126{fill:url(#SVGID_231_);}
	.st127{fill:url(#SVGID_232_);}
	.st128{clip-path:url(#SVGID_234_);fill:#0B0204;}
	.st129{fill:#F44336;}
	.st130{fill:#ECEFF1;}
	.st131{fill:#3F51B5;}
	.st132{fill:#E91E26;}
	.st133{fill:#1B5E20;}
	.st134{fill:#D50000;}
	.st135{fill:#F0A11C;}
	.st136{fill:#6E7A2F;}
	.st137{fill:none;stroke:#000000;stroke-width:3.5198;stroke-linecap:round;stroke-linejoin:round;}
	.st138{fill:none;stroke:#000000;stroke-width:3.5198;stroke-miterlimit:10;}
	.st139{clip-path:url(#SVGID_236_);}
	.st140{fill:none;stroke:#000000;stroke-width:1.1733;stroke-linecap:round;stroke-miterlimit:10;}
	.st141{fill:none;stroke:#000000;stroke-width:5;stroke-miterlimit:10;}
	.st142{fill:none;stroke:#000000;stroke-width:3.3;stroke-miterlimit:10;}
	.st143{clip-path:url(#SVGID_238_);}
	.st144{clip-path:url(#SVGID_240_);}
	.st145{clip-path:url(#SVGID_242_);}
	.st146{fill:none;stroke:#000000;stroke-width:3.5198;stroke-linejoin:round;stroke-miterlimit:10;}
	.st147{fill:none;stroke:#000000;stroke-width:3.5198;stroke-linecap:round;stroke-miterlimit:10;}
	.st148{fill:#CCCCCC;}
	.st149{fill:none;stroke:#000000;stroke-width:4.4081;stroke-linecap:round;stroke-miterlimit:10;}
	.st150{fill:none;stroke:#CCCCCC;stroke-width:4.6823;stroke-linecap:round;stroke-linejoin:round;}
	.st151{fill:none;stroke:#000000;stroke-width:4.6823;stroke-linecap:round;stroke-linejoin:round;}
	.st152{fill:#FFFFFF;stroke:#000000;stroke-width:4.6823;stroke-linecap:round;stroke-linejoin:round;}
</style>
<g id="Layer_1">
</g>
<g id="icons">
	<g>
		<path d="M102.4,89.3v7.8h-7.9c-3.4,0-6.2,2.8-6.2,6.2v90.3c0,3.4,2.8,6.2,6.2,6.2h52.7c1.8,0,3.4-0.7,4.5-2
			c1.1-1.3,1.5-2.9,1.3-4.7v-89.8c0-3.4-2.8-6.2-6.2-6.2h-8.2v-7.8c0-2.7-2.5-5.1-5.4-5.1h-25.4C104.6,84.2,102.4,86.3,102.4,89.3z
			 M147.4,103.3v90c0,0.2,0,0.3,0,0.5c0,0.2,0,0.3,0,0.3c0,0,0,0-0.2,0H94.5c-0.3,0-0.5-0.2-0.5-0.5v-90.3c0-0.3,0.2-0.5,0.5-0.5
			h52.4C147.2,102.8,147.4,103,147.4,103.3z M133,89.9v7.2h-24.9v-7.2L133,89.9z"/>
		<path d="M25.8,142c0-46.9,34.4-86.5,80.5-93.3L96,61.3c-1,1.2-0.8,3,0.4,4c0.5,0.4,1.2,0.6,1.8,0.6c0.8,0,1.6-0.4,2.2-1l14.8-18.1
			c0.5-0.6,0.7-1.3,0.6-2.1c-0.1-0.8-0.5-1.4-1.1-1.9L96.7,28.4c-1.2-1-3-0.8-4,0.5c-1,1.2-0.8,3,0.5,4L105.8,43
			c-49.1,7.1-85.7,49.1-85.7,99c0,6.2,0.6,12.9,1.9,20c0.2,1.4,1.4,2.4,2.8,2.4c0.2,0,0.3,0,0.5,0c1.5-0.3,2.6-1.7,2.3-3.3
			C26.4,154.3,25.8,147.9,25.8,142z"/>
		<path d="M235.1,173.5c-0.5-1.5-2.2-2.2-3.7-1.7l-15,5.6c16.8-45.1-0.8-96.3-42.7-121.2c-7.1-4-12.8-6.7-18.5-8.7
			c-1.5-0.5-3.1,0.3-3.6,1.7c-0.5,1.5,0.3,3.1,1.7,3.6c5.4,1.9,10.8,4.5,17.6,8.2c39.5,23.5,56.1,71.8,40.2,114.4l-5.8-15.7
			c-0.5-1.5-2.2-2.2-3.7-1.7c-1.5,0.5-2.2,2.2-1.7,3.7l8.1,21.8c0.4,1.1,1.5,1.9,2.7,1.9c0.3,0,0.7-0.1,1-0.2l21.8-8.1
			C234.9,176.6,235.6,175,235.1,173.5z"/>
		<path d="M181.5,216.6c-4.4,3.7-9.7,7.3-15.7,10.7c-40.9,22-91.6,11-119.8-25.4l15.9,3.1c1.5,0.3,3-0.7,3.3-2.3s-0.7-3-2.3-3.3
			l-22.9-4.4c-0.7-0.1-1.5,0-2.1,0.4c-0.6,0.4-1.1,1.1-1.2,1.8L32.4,220c-0.3,1.5,0.7,3,2.3,3.3c0.2,0,0.4,0.1,0.5,0.1
			c1.3,0,2.5-0.9,2.8-2.3l3.2-16.3c19.5,25.5,49.4,39.5,80,39.5c16.1,0,32.4-3.9,47.5-12c6.4-3.6,12-7.4,16.7-11.4
			c1.2-1,1.3-2.8,0.3-4C184.5,215.7,182.7,215.5,181.5,216.6z"/>
		<path d="M131.4,118.5h-7.1v-7.1c0-1.6-1.3-2.8-2.8-2.8s-2.8,1.3-2.8,2.8v7.1h-7.5c-1.6,0-2.8,1.3-2.8,2.8s1.3,2.8,2.8,2.8h7.5v7.5
			c0,1.6,1.3,2.8,2.8,2.8s2.8-1.3,2.8-2.8v-7.5h7.1c1.6,0,2.8-1.3,2.8-2.8S133,118.5,131.4,118.5z"/>
		<path d="M131,178.6h-19.5c-1.6,0-2.8,1.3-2.8,2.8s1.3,2.8,2.8,2.8H131c1.6,0,2.8-1.3,2.8-2.8S132.6,178.6,131,178.6z"/>
	</g>
</g>
</svg>
