<?xml version="1.0" encoding="utf-8"?>
<!-- Generator: Adobe Illustrator 24.3.2, SVG Export Plug-In . SVG Version: 6.00 Build 0)  -->
<svg version="1.1" xmlns="http://www.w3.org/2000/svg" xmlns:xlink="http://www.w3.org/1999/xlink" x="0px" y="0px"
	 viewBox="0 0 250 250" style="enable-background:new 0 0 250 250;" xml:space="preserve">
<style type="text/css">
	.st0{opacity:0.5;}
	.st1{clip-path:url(#SVGID_2_);fill:none;stroke:#00D905;stroke-width:3.5198;stroke-miterlimit:10;}
	.st2{clip-path:url(#SVGID_4_);fill:none;stroke:#00D905;stroke-width:1.1733;stroke-linecap:round;stroke-miterlimit:10;}
	.st3{clip-path:url(#SVGID_6_);fill:none;stroke:#00D905;stroke-width:3.5198;stroke-miterlimit:10;}
	.st4{clip-path:url(#SVGID_8_);fill:none;stroke:#00D905;stroke-width:1.1733;stroke-linecap:round;stroke-miterlimit:10;}
	.st5{clip-path:url(#SVGID_10_);fill:none;stroke:#00D905;stroke-width:3.5198;stroke-miterlimit:10;}
	.st6{clip-path:url(#SVGID_10_);fill:none;stroke:#00D905;stroke-width:3.5198;stroke-linecap:round;stroke-miterlimit:10;}
	.st7{clip-path:url(#SVGID_12_);fill:none;stroke:#00D905;stroke-width:1.1733;stroke-linecap:round;stroke-miterlimit:10;}
	.st8{clip-path:url(#SVGID_14_);fill:none;stroke:#00D905;stroke-width:3.5198;stroke-miterlimit:10;}
	.st9{fill:none;}
	.st10{fill:none;stroke:#000000;stroke-width:5.3573;stroke-linecap:round;stroke-linejoin:round;}
	.st11{fill:none;stroke:#000000;stroke-width:5.6884;stroke-linecap:round;stroke-linejoin:round;}
	.st12{fill:none;stroke:#000000;stroke-width:6;stroke-linecap:round;stroke-linejoin:round;}
	.st13{fill:none;stroke:#000000;stroke-width:8;stroke-linejoin:round;}
	.st14{fill:none;stroke:#000000;stroke-width:8;stroke-linecap:round;stroke-linejoin:round;}
	.st15{fill:#FFDD00;}
	.st16{display:none;}
	.st17{fill:#FFFFFF;}
	.st18{clip-path:url(#SVGID_16_);fill:#FFDD00;}
	.st19{clip-path:url(#SVGID_18_);fill:url(#SVGID_19_);}
	.st20{clip-path:url(#SVGID_21_);fill:url(#SVGID_22_);}
	.st21{clip-path:url(#SVGID_24_);fill:url(#SVGID_25_);}
	.st22{clip-path:url(#SVGID_27_);fill:url(#SVGID_28_);}
	.st23{clip-path:url(#SVGID_30_);fill:url(#SVGID_31_);}
	.st24{clip-path:url(#SVGID_33_);fill:url(#SVGID_34_);}
	.st25{clip-path:url(#SVGID_36_);fill:url(#SVGID_37_);}
	.st26{clip-path:url(#SVGID_39_);fill:url(#SVGID_40_);}
	.st27{clip-path:url(#SVGID_42_);fill:url(#SVGID_43_);}
	.st28{clip-path:url(#SVGID_45_);fill:url(#SVGID_46_);}
	.st29{fill:url(#SVGID_47_);}
	.st30{fill:url(#SVGID_48_);}
	.st31{fill:url(#SVGID_49_);}
	.st32{fill:url(#SVGID_50_);}
	.st33{fill:url(#SVGID_51_);}
	.st34{fill:url(#SVGID_52_);}
	.st35{fill:url(#SVGID_53_);}
	.st36{fill:url(#SVGID_54_);}
	.st37{fill:url(#SVGID_55_);}
	.st38{fill:url(#SVGID_56_);}
	.st39{clip-path:url(#SVGID_58_);fill:#0B0204;}
	.st40{fill:#EFEFEF;}
	.st41{clip-path:url(#SVGID_60_);fill:#FFDD00;}
	.st42{clip-path:url(#SVGID_62_);fill:url(#SVGID_63_);}
	.st43{clip-path:url(#SVGID_65_);fill:url(#SVGID_66_);}
	.st44{clip-path:url(#SVGID_68_);fill:url(#SVGID_69_);}
	.st45{clip-path:url(#SVGID_71_);fill:url(#SVGID_72_);}
	.st46{clip-path:url(#SVGID_74_);fill:url(#SVGID_75_);}
	.st47{clip-path:url(#SVGID_77_);fill:url(#SVGID_78_);}
	.st48{clip-path:url(#SVGID_80_);fill:url(#SVGID_81_);}
	.st49{clip-path:url(#SVGID_83_);fill:url(#SVGID_84_);}
	.st50{clip-path:url(#SVGID_86_);fill:url(#SVGID_87_);}
	.st51{clip-path:url(#SVGID_89_);fill:url(#SVGID_90_);}
	.st52{fill:url(#SVGID_91_);}
	.st53{fill:url(#SVGID_92_);}
	.st54{fill:url(#SVGID_93_);}
	.st55{fill:url(#SVGID_94_);}
	.st56{fill:url(#SVGID_95_);}
	.st57{fill:url(#SVGID_96_);}
	.st58{fill:url(#SVGID_97_);}
	.st59{fill:url(#SVGID_98_);}
	.st60{fill:url(#SVGID_99_);}
	.st61{fill:url(#SVGID_100_);}
	.st62{clip-path:url(#SVGID_102_);fill:#0B0204;}
	.st63{clip-path:url(#SVGID_104_);fill:#FFDD00;}
	.st64{clip-path:url(#SVGID_106_);fill:url(#SVGID_107_);}
	.st65{clip-path:url(#SVGID_109_);fill:url(#SVGID_110_);}
	.st66{clip-path:url(#SVGID_112_);fill:url(#SVGID_113_);}
	.st67{clip-path:url(#SVGID_115_);fill:url(#SVGID_116_);}
	.st68{clip-path:url(#SVGID_118_);fill:url(#SVGID_119_);}
	.st69{clip-path:url(#SVGID_121_);fill:url(#SVGID_122_);}
	.st70{clip-path:url(#SVGID_124_);fill:url(#SVGID_125_);}
	.st71{clip-path:url(#SVGID_127_);fill:url(#SVGID_128_);}
	.st72{clip-path:url(#SVGID_130_);fill:url(#SVGID_131_);}
	.st73{clip-path:url(#SVGID_133_);fill:url(#SVGID_134_);}
	.st74{fill:url(#SVGID_135_);}
	.st75{fill:url(#SVGID_136_);}
	.st76{fill:url(#SVGID_137_);}
	.st77{fill:url(#SVGID_138_);}
	.st78{fill:url(#SVGID_139_);}
	.st79{fill:url(#SVGID_140_);}
	.st80{fill:url(#SVGID_141_);}
	.st81{fill:url(#SVGID_142_);}
	.st82{fill:url(#SVGID_143_);}
	.st83{fill:url(#SVGID_144_);}
	.st84{clip-path:url(#SVGID_146_);fill:#0B0204;}
	.st85{clip-path:url(#SVGID_148_);fill:#FFDD00;}
	.st86{clip-path:url(#SVGID_150_);fill:url(#SVGID_151_);}
	.st87{clip-path:url(#SVGID_153_);fill:url(#SVGID_154_);}
	.st88{clip-path:url(#SVGID_156_);fill:url(#SVGID_157_);}
	.st89{clip-path:url(#SVGID_159_);fill:url(#SVGID_160_);}
	.st90{clip-path:url(#SVGID_162_);fill:url(#SVGID_163_);}
	.st91{clip-path:url(#SVGID_165_);fill:url(#SVGID_166_);}
	.st92{clip-path:url(#SVGID_168_);fill:url(#SVGID_169_);}
	.st93{clip-path:url(#SVGID_171_);fill:url(#SVGID_172_);}
	.st94{clip-path:url(#SVGID_174_);fill:url(#SVGID_175_);}
	.st95{clip-path:url(#SVGID_177_);fill:url(#SVGID_178_);}
	.st96{fill:url(#SVGID_179_);}
	.st97{fill:url(#SVGID_180_);}
	.st98{fill:url(#SVGID_181_);}
	.st99{fill:url(#SVGID_182_);}
	.st100{fill:url(#SVGID_183_);}
	.st101{fill:url(#SVGID_184_);}
	.st102{fill:url(#SVGID_185_);}
	.st103{fill:url(#SVGID_186_);}
	.st104{fill:url(#SVGID_187_);}
	.st105{fill:url(#SVGID_188_);}
	.st106{clip-path:url(#SVGID_190_);fill:#0B0204;}
	.st107{clip-path:url(#SVGID_192_);fill:#FFDD00;}
	.st108{clip-path:url(#SVGID_194_);fill:url(#SVGID_195_);}
	.st109{clip-path:url(#SVGID_197_);fill:url(#SVGID_198_);}
	.st110{clip-path:url(#SVGID_200_);fill:url(#SVGID_201_);}
	.st111{clip-path:url(#SVGID_203_);fill:url(#SVGID_204_);}
	.st112{clip-path:url(#SVGID_206_);fill:url(#SVGID_207_);}
	.st113{clip-path:url(#SVGID_209_);fill:url(#SVGID_210_);}
	.st114{clip-path:url(#SVGID_212_);fill:url(#SVGID_213_);}
	.st115{clip-path:url(#SVGID_215_);fill:url(#SVGID_216_);}
	.st116{clip-path:url(#SVGID_218_);fill:url(#SVGID_219_);}
	.st117{clip-path:url(#SVGID_221_);fill:url(#SVGID_222_);}
	.st118{fill:url(#SVGID_223_);}
	.st119{fill:url(#SVGID_224_);}
	.st120{fill:url(#SVGID_225_);}
	.st121{fill:url(#SVGID_226_);}
	.st122{fill:url(#SVGID_227_);}
	.st123{fill:url(#SVGID_228_);}
	.st124{fill:url(#SVGID_229_);}
	.st125{fill:url(#SVGID_230_);}
	.st126{fill:url(#SVGID_231_);}
	.st127{fill:url(#SVGID_232_);}
	.st128{clip-path:url(#SVGID_234_);fill:#0B0204;}
	.st129{fill:#F44336;}
	.st130{fill:#ECEFF1;}
	.st131{fill:#3F51B5;}
	.st132{fill:#E91E26;}
	.st133{fill:#1B5E20;}
	.st134{fill:#D50000;}
	.st135{fill:#F0A11C;}
	.st136{fill:#6E7A2F;}
	.st137{fill:none;stroke:#000000;stroke-width:3.5198;stroke-linecap:round;stroke-linejoin:round;}
	.st138{fill:none;stroke:#000000;stroke-width:3.5198;stroke-miterlimit:10;}
	.st139{clip-path:url(#SVGID_236_);}
	.st140{fill:none;stroke:#000000;stroke-width:1.1733;stroke-linecap:round;stroke-miterlimit:10;}
	.st141{fill:none;stroke:#000000;stroke-width:5;stroke-miterlimit:10;}
	.st142{fill:none;stroke:#000000;stroke-width:3.3;stroke-miterlimit:10;}
	.st143{clip-path:url(#SVGID_238_);}
	.st144{clip-path:url(#SVGID_240_);}
	.st145{clip-path:url(#SVGID_242_);}
	.st146{fill:none;stroke:#000000;stroke-width:3.5198;stroke-linejoin:round;stroke-miterlimit:10;}
	.st147{fill:none;stroke:#000000;stroke-width:3.5198;stroke-linecap:round;stroke-miterlimit:10;}
	.st148{fill:#CCCCCC;}
	.st149{fill:none;stroke:#000000;stroke-width:4.4081;stroke-linecap:round;stroke-miterlimit:10;}
	.st150{fill:none;stroke:#CCCCCC;stroke-width:4.6823;stroke-linecap:round;stroke-linejoin:round;}
	.st151{fill:none;stroke:#000000;stroke-width:4.6823;stroke-linecap:round;stroke-linejoin:round;}
	.st152{fill:#FFFFFF;stroke:#000000;stroke-width:4.6823;stroke-linecap:round;stroke-linejoin:round;}
</style>
<g id="Layer_1">
</g>
<g id="icons">
	<g>
		<path d="M205.1,207.1c13.2-17.2,21-38.6,21-61.9c0-23.3-7.9-44.8-21-62c-0.1-0.1-0.1-0.2-0.2-0.4c-0.1-0.1-0.2-0.2-0.3-0.4
			c-18.7-23.9-47.8-39.3-80.4-39.3H122v0c-31.1,0.7-58.8,15.3-77.1,37.9c-0.1,0.1-0.2,0.2-0.4,0.4c-0.1,0.1-0.1,0.2-0.2,0.3
			c-13.9,17.4-22.2,39.5-22.2,63.4c0,23.5,8,45.2,21.4,62.5c0.1,0.1,0.1,0.2,0.2,0.3c0.1,0.1,0.2,0.3,0.4,0.4
			c18.3,23.1,46.3,38.1,77.7,38.7v0h2.2c32.7,0,61.8-15.4,80.5-39.4c0.1-0.1,0.2-0.2,0.3-0.3C205,207.3,205.1,207.2,205.1,207.1z
			 M142.7,183.8c7.5,1.1,15,2.9,22.3,5.3c-11,29.2-30,49.7-38.6,53.1v-37.9c0-1.2-1-2.2-2.2-2.2s-2.2,1-2.2,2.2v37.9
			c-8.6-3.4-27.5-23.7-38.5-52.8c7.1-2.4,14.9-4.4,23.5-5.7c1.2-0.2,2-1.3,1.9-2.5c-0.2-1.2-1.3-2-2.5-1.9c-8.9,1.3-17,3.4-24.3,5.9
			c-3.9-11.5-6.5-24.3-6.8-37.9h33.6c1.2,0,2.2-1,2.2-2.2s-1-2.2-2.2-2.2H75.1c0.3-13.8,2.9-26.7,7-38.4c4.4,1.6,8.9,3,13.4,4.1
			c0.2,0,0.4,0.1,0.5,0.1c1,0,1.9-0.7,2.1-1.7c0.3-1.2-0.4-2.4-1.6-2.7c-4.3-1.1-8.6-2.4-12.9-4c11-28.9,29.8-49,38.3-52.3v45
			c0,1.2,1,2.2,2.2,2.2s2.2-1,2.2-2.2v-45c8.6,3.4,27.6,23.8,38.6,53.1c-3.8,1.2-7.6,2.3-11.4,3.2c-1.2,0.3-1.9,1.5-1.6,2.6
			c0.2,1,1.1,1.7,2.1,1.7c0.2,0,0.3,0,0.5-0.1c4-0.9,8-2.1,11.9-3.4c3.9,11.5,6.5,24.2,6.7,37.6h-20.7c-1.2,0-2.2,1-2.2,2.2
			s1,2.2,2.2,2.2h20.7c-0.3,13.5-2.8,26.2-6.7,37.6c-7.6-2.5-15.4-4.4-23.1-5.5c-1.2-0.2-2.3,0.7-2.5,1.9
			C140.6,182.5,141.5,183.7,142.7,183.8z M26.6,147.4h44.1c0.3,14.7,3.2,28,7.1,39.3c-14.1,5.3-24.9,12-31.8,16.9
			C34.3,187.9,27.1,168.4,26.6,147.4z M46.8,85.9C56.3,92.8,67,98.6,78,103c-4,11.5-7,25-7.3,39.9H26.6
			C27.1,121.5,34.5,101.8,46.8,85.9z M221.7,143h-44.1c-0.3-14.5-3.2-27.8-7-39.1c11.6-4.2,22.6-9.9,32-16.7
			C214.2,102.9,221.2,122.1,221.7,143z M177.6,147.4h44.1c-0.5,20.8-7.5,40-19,55.7c-9.5-6.7-20.5-12.4-32.1-16.6
			C174.4,175.2,177.3,161.9,177.6,147.4z M199.9,83.7c-9.1,6.5-19.7,11.9-30.8,16c-4.2-11.2-9.2-20.3-13-26.3
			c-6.9-10.9-14.7-20-21.4-25.3C160.9,51,184.1,64.3,199.9,83.7z M113.6,48.2c-6.7,5.3-14.5,14.3-21.4,25.3
			c-3.7,5.9-8.5,14.6-12.6,25.4C69,94.7,58.7,89,49.5,82.4C65.3,63.7,88,51,113.6,48.2z M48.8,207.1c6.6-4.7,17-11.1,30.5-16.2
			c4.2,11.1,9.1,20,12.9,26c6.9,10.9,14.7,20,21.4,25.3C87.6,239.3,64.6,226.3,48.8,207.1z M134.7,242.2
			c6.7-5.3,14.5-14.3,21.4-25.3c3.8-6,8.8-15,13-26.3c11.2,4,21.7,9.5,30.9,15.9C184.1,226,161,239.3,134.7,242.2z"/>
		<path d="M124.1,175.7c-2.7,0-4.8,0.9-6.6,2.7c-1.8,1.8-2.7,4-2.7,6.7c0,2.7,0.9,4.9,2.7,6.6c1.8,1.8,4,2.7,6.6,2.7
			c2.7,0,4.9-0.9,6.7-2.7c1.8-1.8,2.7-3.9,2.7-6.6c0-2.7-0.9-4.9-2.7-6.7S126.8,175.7,124.1,175.7z"/>
		<path d="M142.4,143.3c2.8-2.8,5.1-5.7,6.7-8.6c1.5-2.9,2.3-6.4,2.3-10.6c0-7-2.2-12.5-6.6-16.9c-4.4-4.3-10.7-6.5-18.8-6.5
			c-8.6,0-15.3,2.4-20,7.2c-3.9,4-6.2,9.2-6.9,15.7c-0.1,1.3,0.9,2.5,2.2,2.5h8.6c1.1,0,2-0.8,2.2-1.8c0.5-2.7,1.7-5.1,3.5-7
			c2.5-2.7,6-4.1,10.2-4.1c4,0,7.1,1.1,9.3,3.2c2.2,2.1,3.3,5,3.3,8.5c0,2.5-0.7,4.9-2.1,7c-1.3,1.9-3.2,4.1-5.6,6.5l-1.5,1.5
			l-2.7,2.7c-2.1,2.1-4.1,4.6-5.9,7.6c-1.7,2.8-2.6,6.6-2.6,11.1c0,1.2,1,2.2,2.2,2.2h10.6v-0.6c0-3,0.6-5.8,1.8-8.3
			c1.2-2.5,3.1-4.9,5.5-7.2c2.2-2.1,3.7-3.4,4.4-4C142.3,143.3,142.3,143.3,142.4,143.3z"/>
	</g>
</g>
</svg>
